<svg width="38" height="36" viewBox="0 0 38 36" fill="none" xmlns="http://www.w3.org/2000/svg">
<g filter="url(#filter0_d_42_91)">
<path d="M35.7392 22.1572H2.26086V4.70046C2.26086 3.58861 3.16515 2.68433 4.277 2.68433H33.723C34.8345 2.68433 35.7392 3.58861 35.7392 4.70046V22.1572ZM3.00483 21.4132H34.9952V4.70046C34.9952 3.99891 34.4246 3.42829 33.723 3.42829H4.277C3.57545 3.42829 3.00483 3.99891 3.00483 4.70046V21.4132Z" fill="#331B3B"/>
<path d="M33.723 26.7788H4.277C3.16515 26.7788 2.26086 25.8741 2.26086 24.7626V21.4133H35.7392V24.7626C35.7392 25.8741 34.8345 26.7788 33.723 26.7788ZM3.00483 22.1573V24.7626C3.00483 25.4642 3.57545 26.0348 4.277 26.0348H33.723C34.4246 26.0348 34.9952 25.4642 34.9952 24.7626V22.1573H3.00483V22.1573Z" fill="#331B3B"/>
<path d="M24.1426 31.3775H13.8573C13.6966 31.3775 13.5542 31.2745 13.5039 31.1216C13.4537 30.9687 13.5077 30.8013 13.6371 30.7061C15.0499 29.6687 15.9929 28.0837 16.2242 26.3577C16.2488 26.1732 16.4065 26.0352 16.5929 26.0352H21.4063C21.5927 26.0352 21.7504 26.1728 21.7749 26.3577C22.0063 28.084 22.9497 29.6687 24.3624 30.7061C24.4923 30.8013 24.5458 30.9687 24.4956 31.1216C24.4454 31.2745 24.3037 31.3775 24.1426 31.3775ZM14.8661 30.6336H23.1342C22.0766 29.592 21.3546 28.2391 21.089 26.7787H16.9109C16.6457 28.2391 15.9237 29.592 14.8661 30.6336Z" fill="#331B3B"/>
<path d="M24.9718 33.3158H13.0282C12.2887 33.3158 11.6873 32.7143 11.6873 31.9748C11.6873 31.2353 12.2887 30.6338 13.0282 30.6338H24.9718C25.7113 30.6338 26.3128 31.2353 26.3128 31.9748C26.3128 32.7143 25.7113 33.3158 24.9718 33.3158ZM13.0282 31.3774C12.699 31.3774 12.4312 31.6452 12.4312 31.9744C12.4312 32.3036 12.699 32.5714 13.0282 32.5714H24.9718C25.3014 32.5714 25.5689 32.3036 25.5689 31.9744C25.5689 31.6452 25.301 31.3774 24.9718 31.3774H13.0282Z" fill="#331B3B"/>
<path d="M19.6327 24.4678H18.3672C18.1619 24.4678 17.9952 24.3016 17.9952 24.0959C17.9952 23.8902 18.1619 23.7239 18.3672 23.7239H19.6327C19.8384 23.7239 20.0047 23.8902 20.0047 24.0959C20.0047 24.3016 19.8384 24.4678 19.6327 24.4678Z" fill="#331B3B"/>
<path d="M15.7582 16.0391C14.4593 16.0391 14.0851 14.883 13.7841 13.9541C13.4761 13.003 13.2529 12.4201 12.5703 12.4201C12.365 12.4201 12.1984 12.2534 12.1984 12.0481C12.1984 11.8428 12.365 11.6761 12.5703 11.6761C13.2529 11.6761 13.4765 11.0932 13.7845 10.1421C14.0854 9.21287 14.4596 8.05713 15.7586 8.05713C15.9639 8.05713 16.1306 8.22378 16.1306 8.42911C16.1306 8.63444 15.9639 8.80109 15.7586 8.80109C15.0373 8.80109 14.8074 9.39775 14.4924 10.3712C14.3023 10.9586 14.0821 11.6378 13.6145 12.0481C14.0821 12.4584 14.3023 13.1376 14.4924 13.725C14.8074 14.6985 15.0373 15.2951 15.7586 15.2951C15.9639 15.2951 16.1306 15.4618 16.1306 15.6671C16.1306 15.8725 15.9636 16.0391 15.7582 16.0391Z" fill="#331B3B"/>
<path d="M22.2419 16.0391C22.0361 16.0391 21.8699 15.8725 21.8699 15.6671C21.8699 15.4618 22.0361 15.2951 22.2419 15.2951C22.9628 15.2951 23.193 14.6985 23.5081 13.7246C23.6982 13.1376 23.9184 12.458 24.386 12.0481C23.918 11.6378 23.6978 10.9586 23.5081 10.3716C23.1926 9.39775 22.9628 8.80109 22.2419 8.80109C22.0361 8.80109 21.8699 8.63444 21.8699 8.42911C21.8699 8.22378 22.0361 8.05713 22.2419 8.05713C23.5408 8.05713 23.915 9.21325 24.216 10.1421C24.524 11.0932 24.7471 11.6761 25.4297 11.6761C25.6354 11.6761 25.8017 11.8428 25.8017 12.0481C25.8017 12.2534 25.6354 12.4201 25.4297 12.4201C24.7471 12.4201 24.5236 13.003 24.2156 13.9541C23.915 14.883 23.5408 16.0391 22.2419 16.0391Z" fill="#331B3B"/>
<path d="M17.5377 16.9034C17.4987 16.9034 17.4589 16.8971 17.4194 16.884C17.2249 16.8186 17.1196 16.6077 17.1851 16.4131L20.1907 7.44725C20.2562 7.25271 20.4671 7.14781 20.6616 7.21291C20.8565 7.27837 20.9618 7.48929 20.8963 7.68383L17.8907 16.6497C17.8383 16.8048 17.6932 16.9034 17.5377 16.9034Z" fill="#331B3B"/>
</g>
<defs>
<filter id="filter0_d_42_91" x="0" y="-1" width="38" height="38" filterUnits="userSpaceOnUse" color-interpolation-filters="sRGB">
<feFlood flood-opacity="0" result="BackgroundImageFix"/>
<feColorMatrix in="SourceAlpha" type="matrix" values="0 0 0 0 0 0 0 0 0 0 0 0 0 0 0 0 0 0 127 0" result="hardAlpha"/>
<feMorphology radius="2" operator="dilate" in="SourceAlpha" result="effect1_dropShadow_42_91"/>
<feOffset/>
<feComposite in2="hardAlpha" operator="out"/>
<feColorMatrix type="matrix" values="0 0 0 0 1 0 0 0 0 1 0 0 0 0 1 0 0 0 0.01 0"/>
<feBlend mode="normal" in2="BackgroundImageFix" result="effect1_dropShadow_42_91"/>
<feBlend mode="normal" in="SourceGraphic" in2="effect1_dropShadow_42_91" result="shape"/>
</filter>
</defs>
</svg>
