<svg width="612" height="606" viewBox="0 0 612 606" fill="none" xmlns="http://www.w3.org/2000/svg">
<g filter="url(#filter0_d_42_35)">
<path d="M607.94 296.979C607.967 298.313 607.984 299.651 607.993 300.99L606.993 300.996C606.998 301.664 607 302.332 607 303C607 303.668 606.998 304.336 606.993 305.003L607.993 305.01C607.984 306.349 607.967 307.686 607.94 309.021L606.94 309.001C606.914 310.331 606.878 311.66 606.834 312.986L607.834 313.019C607.789 314.35 607.736 315.678 607.675 317.004L606.676 316.958C606.614 318.289 606.543 319.617 606.463 320.944L607.462 321.003C607.381 322.339 607.292 323.672 607.195 325.003L606.197 324.93C606.1 326.256 605.994 327.58 605.879 328.902L606.875 328.988C606.76 330.314 606.636 331.638 606.503 332.959L605.508 332.859C605.375 334.186 605.232 335.51 605.082 336.832L606.075 336.945C605.924 338.274 605.763 339.599 605.594 340.922L604.602 340.795C604.434 342.114 604.256 343.43 604.07 344.743L605.061 344.883C604.874 346.201 604.679 347.517 604.475 348.829L603.487 348.676C603.282 349.994 603.068 351.31 602.846 352.622L603.832 352.789C603.609 354.106 603.377 355.42 603.137 356.731L602.153 356.551C601.914 357.858 601.666 359.161 601.409 360.462L602.39 360.656C602.132 361.964 601.865 363.269 601.59 364.571L600.612 364.365C600.336 365.669 600.052 366.969 599.759 368.267L600.734 368.487C600.44 369.789 600.138 371.088 599.827 372.384L598.855 372.15C598.545 373.442 598.226 374.73 597.9 376.014L598.869 376.261C598.539 377.555 598.202 378.846 597.856 380.133L596.89 379.873C596.544 381.159 596.19 382.442 595.827 383.721L596.789 383.994C596.425 385.277 596.053 386.557 595.672 387.833L594.714 387.547C594.334 388.819 593.947 390.088 593.55 391.353L594.505 391.652C594.105 392.927 593.698 394.199 593.281 395.467L592.331 395.156C591.916 396.42 591.493 397.681 591.062 398.937L592.008 399.262C591.575 400.523 591.134 401.781 590.684 403.034L589.743 402.697C589.294 403.947 588.838 405.194 588.373 406.437L589.31 406.788C588.842 408.039 588.366 409.286 587.882 410.53L586.95 410.167C586.467 411.406 585.977 412.642 585.478 413.873L586.405 414.248C585.904 415.484 585.396 416.715 584.879 417.942L583.957 417.554C583.441 418.78 582.917 420.002 582.385 421.219L583.302 421.62C582.767 422.843 582.224 424.062 581.674 425.277L580.763 424.864C580.214 426.075 579.657 427.282 579.093 428.484L579.998 428.909C579.432 430.115 578.857 431.317 578.275 432.514L577.376 432.077C576.794 433.274 576.204 434.467 575.607 435.655L576.5 436.104C575.901 437.296 575.293 438.484 574.678 439.667L573.791 439.205C573.178 440.384 572.557 441.559 571.928 442.729L572.809 443.202C572.178 444.377 571.54 445.547 570.893 446.712L570.019 446.227C569.373 447.391 568.721 448.549 568.06 449.703L568.928 450.2C568.265 451.357 567.595 452.51 566.917 453.658L566.056 453.15C565.381 454.294 564.698 455.434 564.008 456.568L564.862 457.088C564.168 458.228 563.467 459.362 562.759 460.492L561.911 459.961C561.205 461.087 560.491 462.209 559.77 463.326L560.61 463.868C559.886 464.988 559.156 466.104 558.417 467.214L557.585 466.66C556.849 467.766 556.106 468.868 555.356 469.964L556.181 470.528C555.427 471.63 554.666 472.725 553.898 473.816L553.081 473.24C552.315 474.327 551.542 475.409 550.763 476.485L551.573 477.072C550.79 478.151 550.001 479.226 549.205 480.295L548.403 479.698C547.609 480.764 546.807 481.824 546 482.879L546.793 483.487C545.982 484.546 545.164 485.6 544.339 486.648L543.554 486.029C542.732 487.073 541.902 488.112 541.067 489.146L541.844 489.775C541.005 490.811 540.16 491.842 539.308 492.868L538.539 492.228C537.689 493.251 536.833 494.267 535.969 495.278L536.73 495.927C535.864 496.941 534.991 497.95 534.112 498.952L533.36 498.293C532.484 499.292 531.601 500.286 530.711 501.273L531.454 501.943C530.562 502.933 529.662 503.918 528.757 504.897L528.023 504.218C527.12 505.194 526.211 506.163 525.296 507.127L526.021 507.816C525.102 508.782 524.177 509.743 523.246 510.698L522.53 509.999C521.602 510.951 520.668 511.896 519.727 512.835L520.433 513.543C519.49 514.485 518.54 515.421 517.584 516.35L516.887 515.633C515.934 516.56 514.975 517.48 514.01 518.394L514.697 519.12C513.729 520.037 512.754 520.947 511.774 521.852L511.096 521.116C510.119 522.017 509.135 522.912 508.146 523.8L508.814 524.545C507.822 525.435 506.824 526.319 505.821 527.197L505.162 526.444C504.162 527.319 503.156 528.187 502.143 529.048L502.792 529.81C501.776 530.674 500.755 531.532 499.728 532.384L499.089 531.614C498.066 532.462 497.037 533.303 496.003 534.138L496.63 534.916C495.593 535.753 494.55 536.583 493.501 537.406L492.884 536.62C491.838 537.441 490.787 538.255 489.731 539.062L490.338 539.856C489.278 540.666 488.213 541.469 487.141 542.265L486.545 541.463C485.479 542.255 484.408 543.041 483.331 543.819L483.917 544.63C482.836 545.411 481.751 546.185 480.66 546.952L480.085 546.134C478.997 546.898 477.905 547.656 476.807 548.406L477.371 549.232C476.27 549.984 475.164 550.73 474.052 551.468L473.499 550.635C472.393 551.37 471.282 552.097 470.165 552.818L470.708 553.658C469.587 554.381 468.462 555.097 467.332 555.805L466.801 554.958C465.674 555.664 464.543 556.363 463.406 557.055L463.926 557.909C462.788 558.602 461.644 559.288 460.496 559.966L459.987 559.105C458.844 559.78 457.696 560.448 456.543 561.109L457.04 561.976C455.883 562.639 454.721 563.295 453.555 563.943L453.069 563.068C451.906 563.714 450.739 564.353 449.567 564.984L450.041 565.864C448.868 566.495 447.691 567.119 446.51 567.735L446.047 566.848C444.87 567.462 443.687 568.068 442.501 568.667L442.951 569.56C441.76 570.161 440.565 570.754 439.365 571.34L438.927 570.441C437.732 571.024 436.534 571.6 435.33 572.167L435.757 573.072C434.553 573.64 433.344 574.2 432.132 574.753L431.717 573.843C430.508 574.394 429.295 574.937 428.078 575.472L428.48 576.388C427.259 576.925 426.033 577.454 424.803 577.976L424.413 577.055C423.191 577.573 421.964 578.084 420.734 578.587L421.112 579.512C419.88 580.016 418.643 580.512 417.402 580.999L417.036 580.069C415.799 580.555 414.559 581.033 413.314 581.504L413.668 582.439C412.419 582.911 411.166 583.375 409.909 583.831L409.568 582.891C408.322 583.343 407.072 583.787 405.818 584.223L406.147 585.168C404.889 585.605 403.627 586.035 402.362 586.457L402.046 585.508C400.784 585.928 399.519 586.34 398.251 586.744L398.554 587.697C397.283 588.102 396.009 588.498 394.731 588.886L394.44 587.93C393.172 588.315 391.9 588.692 390.624 589.062L390.902 590.022C389.623 590.393 388.339 590.755 387.053 591.109L386.787 590.145C385.505 590.498 384.219 590.842 382.93 591.179L383.182 592.146C381.894 592.483 380.602 592.811 379.306 593.13L379.067 592.16C377.779 592.477 376.489 592.787 375.195 593.088L375.422 594.062C374.124 594.365 372.823 594.659 371.518 594.944L371.304 593.967C370.004 594.252 368.701 594.529 367.395 594.797L367.596 595.776C366.293 596.043 364.987 596.302 363.679 596.553L363.491 595.571C362.188 595.82 360.883 596.061 359.574 596.294L359.749 597.278C358.437 597.512 357.121 597.737 355.802 597.954L355.64 596.967C354.327 597.183 353.01 597.39 351.69 597.589L351.839 598.578C350.527 598.776 349.211 598.965 347.892 599.146L347.756 598.156C346.442 598.336 345.125 598.508 343.806 598.672L343.929 599.665C342.605 599.829 341.279 599.985 339.95 600.132L339.839 599.138C338.518 599.284 337.193 599.422 335.866 599.552L335.963 600.547C334.642 600.676 333.318 600.796 331.992 600.908L331.907 599.912C330.585 600.023 329.261 600.126 327.934 600.221L328.005 601.218C326.674 601.313 325.34 601.4 324.004 601.477L323.946 600.479C322.62 600.556 321.291 600.625 319.961 600.685L320.006 601.684C318.68 601.744 317.351 601.796 316.02 601.839L315.988 600.839C314.662 600.882 313.333 600.916 312.002 600.942L312.022 601.942C310.687 601.968 309.35 601.985 308.01 601.994L308.004 600.994C307.336 600.998 306.668 601 306 601C305.44 601 304.881 600.999 304.322 600.996L303.997 600.994L303.99 601.994C302.651 601.985 301.314 601.968 299.979 601.942L299.998 600.942C298.668 600.916 297.339 600.882 296.013 600.839L295.98 601.839C294.65 601.796 293.321 601.744 291.995 601.684L292.04 600.685C290.709 600.625 289.381 600.556 288.055 600.479L287.996 601.477C286.66 601.4 285.327 601.313 283.996 601.218L284.067 600.221C282.74 600.126 281.415 600.023 280.093 599.912L280.009 600.908C278.683 600.796 277.359 600.676 276.037 600.547L276.134 599.552C274.807 599.422 273.483 599.284 272.161 599.138L272.051 600.132C270.722 599.985 269.395 599.829 268.072 599.665L268.195 598.672C266.875 598.509 265.558 598.336 264.244 598.156L264.108 599.147C262.79 598.965 261.474 598.776 260.161 598.578L260.31 597.589C258.991 597.39 257.674 597.183 256.36 596.967L256.198 597.954C254.879 597.737 253.564 597.512 252.251 597.279L252.426 596.294C251.118 596.061 249.812 595.82 248.51 595.571L248.322 596.553C247.013 596.302 245.707 596.043 244.405 595.776L244.606 594.797C243.299 594.529 241.996 594.252 240.696 593.967L240.482 594.944C239.178 594.659 237.876 594.365 236.578 594.062L236.805 593.088C235.512 592.787 234.221 592.478 232.934 592.16L232.694 593.131C231.399 592.811 230.107 592.483 228.818 592.146L229.071 591.179C227.781 590.842 226.496 590.498 225.213 590.145L224.948 591.109C223.661 590.755 222.378 590.393 221.098 590.022L221.376 589.062C220.101 588.692 218.829 588.315 217.56 587.93L217.27 588.886C215.992 588.498 214.717 588.102 213.446 587.697L213.75 586.744C212.481 586.34 211.216 585.928 209.955 585.508L209.639 586.457C208.373 586.035 207.112 585.606 205.854 585.168L206.182 584.223C204.928 583.787 203.678 583.343 202.432 582.891L202.091 583.831C200.834 583.375 199.582 582.911 198.333 582.439L198.686 581.504C197.442 581.033 196.201 580.555 194.964 580.069L194.598 581C193.358 580.512 192.121 580.016 190.888 579.512L191.266 578.587C190.036 578.084 188.81 577.574 187.587 577.055L187.197 577.976C185.967 577.454 184.741 576.925 183.52 576.388L183.923 575.472C182.705 574.937 181.492 574.394 180.283 573.843L179.869 574.753C178.656 574.2 177.447 573.64 176.243 573.072L176.67 572.167C175.467 571.6 174.268 571.024 173.074 570.441L172.635 571.34C171.435 570.754 170.24 570.161 169.049 569.56L169.5 568.667C168.313 568.069 167.131 567.462 165.953 566.848L165.491 567.735C164.309 567.119 163.132 566.495 161.96 565.864L162.434 564.984C161.261 564.353 160.094 563.714 158.931 563.069L158.446 563.943C157.279 563.295 156.117 562.639 154.96 561.977L155.458 561.109C154.305 560.448 153.156 559.78 152.013 559.105L151.504 559.966C150.356 559.288 149.213 558.602 148.074 557.909L148.594 557.055C147.457 556.363 146.326 555.664 145.199 554.958L144.668 555.805C143.538 555.097 142.413 554.381 141.293 553.658L141.835 552.818C140.719 552.098 139.608 551.37 138.502 550.635L137.948 551.468C136.837 550.73 135.73 549.984 134.629 549.232L135.194 548.406C134.096 547.656 133.003 546.898 131.916 546.134L131.34 546.952C130.249 546.185 129.164 545.411 128.084 544.63L128.67 543.819C127.593 543.041 126.521 542.255 125.455 541.463L124.859 542.266C123.788 541.469 122.722 540.667 121.662 539.857L122.269 539.062C121.213 538.255 120.162 537.441 119.117 536.62L118.499 537.407C117.45 536.583 116.407 535.753 115.37 534.916L115.998 534.138C114.963 533.303 113.934 532.462 112.911 531.614L112.273 532.384C111.246 531.533 110.224 530.675 109.209 529.81L109.857 529.049C108.845 528.187 107.838 527.319 106.838 526.444L106.18 527.197C105.176 526.319 104.178 525.435 103.186 524.545L103.854 523.801C102.865 522.912 101.882 522.018 100.904 521.117L100.227 521.852C99.246 520.948 98.2715 520.037 97.3031 519.12L97.9906 518.394C97.0255 517.48 96.0665 516.56 95.1137 515.634L94.4166 516.351C93.4605 515.421 92.5106 514.485 91.567 513.543L92.2735 512.836C91.3327 511.896 90.3981 510.951 89.4699 510L88.7542 510.698C87.8229 509.743 86.898 508.783 85.9795 507.816L86.7045 507.127C85.789 506.163 84.88 505.194 83.9775 504.218L83.2434 504.897C82.3378 503.918 81.4387 502.934 80.5462 501.943L81.2892 501.273C80.3996 500.286 79.5165 499.293 78.6401 498.293L77.8883 498.953C77.009 497.95 76.1362 496.942 75.2702 495.928L76.0307 495.278C75.1676 494.267 74.3112 493.251 73.4615 492.229L72.6924 492.868C71.8402 491.842 70.9947 490.811 70.1561 489.775L70.9336 489.146C70.0977 488.113 69.2687 487.074 68.4465 486.029L67.6608 486.648C66.8358 485.6 66.0178 484.546 65.2068 483.487L66.0007 482.879C65.1927 481.824 64.3916 480.764 63.5975 479.698L62.7956 480.295C61.9992 479.226 61.2098 478.152 60.4276 477.072L61.2374 476.485C60.4577 475.409 59.6851 474.327 58.9196 473.24L58.102 473.816C57.334 472.726 56.5731 471.63 55.8195 470.529L56.6447 469.964C55.8944 468.868 55.1513 467.766 54.4155 466.66L53.5828 467.214C52.8447 466.104 52.1137 464.989 51.3902 463.868L52.2302 463.326C51.509 462.209 50.7952 461.088 50.0887 459.961L49.2415 460.492C48.533 459.363 47.832 458.228 47.1383 457.088L47.9926 456.568C47.3022 455.434 46.6193 454.294 45.9438 453.15L45.0827 453.659C44.405 452.511 43.7348 451.358 43.0721 450.2L43.94 449.703C43.2796 448.549 42.6267 447.391 41.9815 446.227L41.107 446.712C40.4606 445.547 39.8218 444.377 39.1908 443.202L40.0717 442.729C39.4433 441.559 38.8225 440.385 38.2094 439.206L37.3222 439.667C36.707 438.484 36.0996 437.296 35.5 436.104L36.3934 435.655C35.7959 434.467 35.2061 433.274 34.6242 432.077L33.7249 432.515C33.1427 431.317 32.5684 430.115 32.002 428.909L32.9072 428.484C32.3427 427.282 31.786 426.075 31.2373 424.865L30.3264 425.277C29.7759 424.062 29.2332 422.843 28.6986 421.62L29.6149 421.219C29.0829 420.002 28.5589 418.78 28.0429 417.554L27.1212 417.942C26.6046 416.715 26.096 415.484 25.5956 414.249L26.5224 413.873C26.0236 412.642 25.5329 411.407 25.0503 410.167L24.1185 410.53C23.6342 409.287 23.1582 408.039 22.6903 406.788L23.627 406.438C23.1623 405.195 22.7057 403.948 22.2573 402.697L21.316 403.034C20.8666 401.781 20.4254 400.524 19.9925 399.262L20.9383 398.938C20.5069 397.681 20.0837 396.42 19.6689 395.156L18.7187 395.468C18.3026 394.2 17.8947 392.928 17.4953 391.652L18.4496 391.353C18.0536 390.088 17.6658 388.82 17.2863 387.548L16.328 387.834C15.9473 386.557 15.5749 385.277 15.211 383.994L16.1731 383.721C15.8104 382.442 15.4561 381.16 15.1102 379.874L14.1446 380.133C13.7984 378.846 13.4606 377.555 13.1314 376.261L14.1006 376.015C13.7738 374.73 13.4554 373.442 13.1455 372.151L12.1731 372.384C11.8621 371.089 11.5597 369.79 11.2658 368.488L12.2413 368.268C11.9484 366.97 11.6641 365.669 11.3884 364.365L10.4101 364.572C10.1347 363.27 9.86798 361.965 9.60984 360.656L10.5909 360.463C10.3343 359.162 10.0862 357.858 9.8467 356.552L8.86309 356.732C8.62279 355.421 8.39112 354.107 8.16815 352.789L9.15412 352.623C8.9319 351.31 8.71835 349.995 8.51353 348.676L7.52539 348.83C7.32144 347.517 7.12612 346.201 6.93948 344.883L7.92961 344.743C7.74371 343.43 7.56646 342.114 7.39791 340.796L6.40598 340.923C6.23686 339.6 6.07647 338.274 5.92487 336.946L6.91842 336.833C6.76754 335.511 6.62541 334.186 6.49206 332.859L5.49707 332.959C5.36434 331.638 5.24029 330.315 5.12498 328.989L6.12122 328.902C6.0063 327.581 5.90008 326.257 5.80264 324.93L4.80533 325.004C4.70756 323.673 4.61858 322.34 4.53846 321.004L5.53667 320.944C5.45711 319.618 5.38632 318.289 5.32434 316.958L4.32542 317.005C4.26366 315.679 4.21063 314.35 4.16638 313.02L5.16582 312.987C5.12172 311.66 5.08637 310.332 5.05982 309.001L4.06002 309.021C4.03339 307.687 4.01559 306.349 4.00668 305.01L5.00666 305.004C5.00222 304.336 5 303.668 5 303C5 302.332 5.00222 301.664 5.00666 300.997L4.00668 300.99C4.01558 299.651 4.03338 298.314 4.06001 296.979L5.05981 296.999C5.08635 295.669 5.1217 294.34 5.16581 293.014L4.16636 292.981C4.21061 291.65 4.26364 290.322 4.32539 288.996L5.32431 289.042C5.38629 287.711 5.45708 286.383 5.53664 285.056L4.53843 284.997C4.61855 283.661 4.70752 282.328 4.80529 280.997L5.8026 281.07C5.90004 279.744 6.00625 278.42 6.12117 277.098L5.12493 277.012C5.24024 275.686 5.36429 274.362 5.49702 273.041L6.49201 273.141C6.62536 271.814 6.76749 270.49 6.91836 269.168L5.92482 269.055C6.07642 267.726 6.2368 266.401 6.40592 265.078L7.39785 265.205C7.5664 263.886 7.74365 262.57 7.92954 261.257L6.93941 261.117C7.12605 259.799 7.32137 258.483 7.52532 257.171L8.51346 257.324C8.71828 256.006 8.93183 254.69 9.15404 253.378L8.16807 253.211C8.39104 251.894 8.62271 250.58 8.86301 249.269L9.84662 249.449C10.0861 248.142 10.3342 246.839 10.5908 245.538L9.60975 245.344C9.86789 244.036 10.1346 242.731 10.41 241.429L11.3883 241.635C11.664 240.331 11.9484 239.031 12.2412 237.733L11.2657 237.513C11.5596 236.211 11.862 234.912 12.173 233.616L13.1454 233.85C13.4553 232.558 13.7737 231.27 14.1005 229.986L13.1313 229.739C13.4605 228.445 13.7983 227.154 14.1444 225.867L15.1101 226.127C15.456 224.841 15.8103 223.558 16.173 222.279L15.2109 222.006C15.5748 220.723 15.9472 219.443 16.3279 218.167L17.2862 218.453C17.6657 217.181 18.0535 215.912 18.4495 214.647L17.4952 214.348C17.8946 213.073 18.3024 211.801 18.7186 210.533L19.6687 210.844C20.0836 209.58 20.5068 208.319 20.9382 207.063L19.9924 206.738C20.4253 205.477 20.8665 204.219 21.3158 202.966L22.2572 203.303C22.7056 202.053 23.1621 200.806 23.6269 199.563L22.6902 199.212C23.158 197.961 23.6341 196.714 24.1184 195.47L25.0502 195.833C25.5328 194.594 26.0235 193.358 26.5223 192.127L25.5954 191.752C26.0959 190.516 26.6045 189.285 27.1211 188.058L28.0427 188.446C28.5587 187.22 29.0828 185.998 29.6148 184.781L28.6985 184.38C29.2331 183.157 29.7757 181.938 30.3263 180.723L31.2371 181.136C31.7859 179.925 32.3425 178.718 32.907 177.516L32.0019 177.091C32.5683 175.885 33.1426 174.683 33.7247 173.486L34.6241 173.923C35.206 172.726 35.7957 171.533 36.3933 170.345L35.4999 169.896C36.0995 168.704 36.7069 167.516 37.322 166.333L38.2093 166.795C38.8223 165.616 39.4431 164.441 40.0715 163.271L39.1906 162.798C39.8217 161.623 40.4605 160.453 41.1068 159.288L41.9813 159.773C42.6266 158.609 43.2794 157.451 43.9399 156.297L43.072 155.8C43.7346 154.643 44.4048 153.49 45.0825 152.342L45.9437 152.85C46.6191 151.706 47.3021 150.566 47.9924 149.432L47.1382 148.912C47.8318 147.772 48.5329 146.638 49.2413 145.508L50.0885 146.039C50.795 144.913 51.5088 143.791 52.23 142.674L51.39 142.132C52.1136 141.012 52.8445 139.896 53.5827 138.786L54.4153 139.34C55.1512 138.234 55.8942 137.132 56.6445 136.036L55.8193 135.472C56.5729 134.37 57.3338 133.275 58.1019 132.184L58.9195 132.76C59.6849 131.673 60.4575 130.591 61.2372 129.515L60.4274 128.928C61.2097 127.849 61.999 126.774 62.7954 125.705L63.5973 126.302C64.3914 125.236 65.1925 124.176 66.0005 123.121L65.2066 122.513C66.0176 121.454 66.8357 120.4 67.6606 119.352L68.4463 119.971C69.2685 118.927 70.0975 117.888 70.9334 116.854L70.1559 116.226C70.9945 115.189 71.84 114.158 72.6922 113.132L73.4613 113.772C74.311 112.749 75.1674 111.733 76.0305 110.722L75.27 110.073C76.136 109.058 77.0088 108.05 77.8881 107.048L78.6399 107.707C79.5163 106.708 80.3994 105.714 81.289 104.727L80.546 104.057C81.4385 103.067 82.3376 102.082 83.2432 101.103L83.9772 101.782C84.8798 100.806 85.7888 99.8368 86.7042 98.8733L85.9793 98.1845C86.8977 97.2177 87.8226 96.257 88.7539 95.3023L89.4697 96.0006C90.3979 95.0492 91.3324 94.1038 92.2732 93.1646L91.5667 92.4569C92.5103 91.5149 93.4603 90.5791 94.4164 89.6496L95.1134 90.3665C96.0663 89.4402 97.0253 88.5201 97.9904 87.6062L97.3029 86.8801C98.2712 85.9632 99.2457 85.0527 100.226 84.1485L100.904 84.8837C101.881 83.9826 102.865 83.0878 103.854 82.1995L103.186 81.4555C104.178 80.5649 105.176 79.6808 106.179 78.8032L106.838 79.5561C107.838 78.6814 108.844 77.8132 109.857 76.9515L109.208 76.1901C110.224 75.3256 111.245 74.4676 112.272 73.6163L112.911 74.3863C113.934 73.5383 114.963 72.697 115.997 71.8623L115.37 71.084C116.407 70.2471 117.45 69.4169 118.499 68.5935L119.116 69.38C120.162 68.5593 121.213 67.7454 122.269 66.9382L121.662 66.1436C122.722 65.3337 123.787 64.5307 124.859 63.7345L125.455 64.5371C126.521 63.7448 127.593 62.9593 128.669 62.1808L128.083 61.3704C129.164 60.5895 130.249 59.8154 131.34 59.0484L131.915 59.8665C133.003 59.102 134.095 58.3445 135.193 57.594L134.629 56.7684C135.73 56.0158 136.836 55.2703 137.948 54.5319L138.501 55.3649C139.607 54.6302 140.718 53.9025 141.835 53.182L141.292 52.3418C142.413 51.6189 143.538 50.9032 144.668 50.1947L145.199 51.042C146.326 50.3358 147.457 49.6368 148.594 48.9451L148.074 48.0909C149.212 47.3981 150.356 46.7125 151.504 46.0342L152.013 46.8953C153.156 46.22 154.304 45.552 155.457 44.8914L154.96 44.0237C156.117 43.3609 157.279 42.7054 158.445 42.0574L158.931 42.9316C160.094 42.2858 161.261 41.6473 162.433 41.0164L161.959 40.1358C163.132 39.5048 164.309 38.8812 165.49 38.2652L165.953 39.1519C167.13 38.538 168.313 37.9315 169.499 37.3326L169.049 36.4399C170.24 35.839 171.435 35.2457 172.635 34.6601L173.073 35.5588C174.268 34.9758 175.466 34.4004 176.67 33.8328L176.243 32.9284C177.447 32.3603 178.656 31.7999 179.868 31.2472L180.283 32.1572C181.492 31.6063 182.705 31.0631 183.922 30.5277L183.52 29.6123C184.741 29.0752 185.967 28.5458 187.197 28.0242L187.587 28.9449C188.809 28.4266 190.036 27.9161 191.266 27.4134L190.888 26.4877C192.12 25.9841 193.357 25.4884 194.598 25.0006L194.964 25.9313C196.201 25.4451 197.441 24.9668 198.686 24.4964L198.332 23.561C199.581 23.0891 200.834 22.6251 202.091 22.1692L202.432 23.1092C203.678 22.6571 204.928 22.2129 206.182 21.7767L205.853 20.8322C207.111 20.3946 208.373 19.965 209.638 19.5435L209.954 20.4922C211.216 20.0721 212.481 19.66 213.749 19.2561L213.446 18.3032C214.717 17.8986 215.991 17.502 217.269 17.1137L217.56 18.0705C218.828 17.685 220.1 17.3077 221.376 16.9385L221.098 15.9779C222.377 15.6074 223.661 15.2452 224.947 14.8911L225.213 15.8553C226.495 15.5024 227.781 15.1577 229.07 14.8212L228.818 13.8536C230.106 13.5174 231.398 13.1893 232.694 12.8695L232.933 13.8404C234.221 13.5226 235.511 13.213 236.805 12.9117L236.578 11.9378C237.876 11.6354 239.177 11.3414 240.482 11.0558L240.696 12.0326C241.996 11.7479 243.299 11.4715 244.605 11.2035L244.404 10.2239C245.707 9.95662 247.013 9.69769 248.321 9.44712L248.509 10.4293C249.812 10.1799 251.117 9.93881 252.426 9.70611L252.251 8.72156C253.563 8.48809 254.879 8.26301 256.198 8.04639L256.36 9.03317C257.673 8.81734 258.99 8.60993 260.31 8.411L260.161 7.42217C261.473 7.22423 262.789 7.03466 264.108 6.85352L264.244 7.84421C265.558 7.66366 266.875 7.49151 268.194 7.32782L268.071 6.33543C269.395 6.17119 270.721 6.01544 272.05 5.86824L272.161 6.86216C273.482 6.71576 274.807 6.57783 276.134 6.44843L276.037 5.45315C277.358 5.32429 278.682 5.20386 280.008 5.09191L280.093 6.08837C281.415 5.97679 282.739 5.87368 284.066 5.77907L283.995 4.78161C285.326 4.6867 286.66 4.60033 287.996 4.52256L288.054 5.52087C289.38 5.44367 290.709 5.37497 292.039 5.31483L291.994 4.31585C293.32 4.2559 294.649 4.20443 295.98 4.16148L296.012 5.16096C297.338 5.11815 298.667 5.08383 299.998 5.05807L299.978 4.05825C301.313 4.0324 302.65 4.01513 303.99 4.00649L303.996 5.00647C304.664 5.00216 305.332 5 306 5C306.668 5 307.336 5.00216 308.003 5.00646L308.01 4.00648C309.349 4.01512 310.686 4.03239 312.021 4.05824L312.002 5.05805C313.332 5.08382 314.661 5.11813 315.987 5.16094L316.02 4.16146C317.35 4.20441 318.679 4.25588 320.005 4.31582L319.96 5.3148C321.291 5.37495 322.619 5.44364 323.945 5.52084L324.004 4.52253C325.34 4.60029 326.673 4.68666 328.004 4.78157L327.933 5.77904C329.26 5.87364 330.585 5.97675 331.907 6.08833L331.991 5.09187C333.317 5.20381 334.641 5.32424 335.963 5.4531L335.866 6.44838C337.193 6.57778 338.517 6.7157 339.839 6.8621L339.949 5.86818C341.278 6.01539 342.605 6.17113 343.928 6.33537L343.805 7.32776C345.125 7.49145 346.442 7.6636 347.756 7.84415L347.892 6.85345C349.21 7.0346 350.526 7.22416 351.839 7.4221L351.69 8.41093C353.009 8.60985 354.326 8.81726 355.64 9.03309L355.802 8.04632C357.121 8.26293 358.436 8.48801 359.749 8.72148L359.574 9.70603C360.882 9.93873 362.188 10.1798 363.49 10.4292L363.678 9.44703C364.987 9.6976 366.293 9.95654 367.595 10.2238L367.394 11.2034C368.701 11.4714 370.004 11.7478 371.304 12.0325L371.518 11.0557C372.822 11.3413 374.124 11.6354 375.422 11.9377L375.195 12.9116C376.488 13.2129 377.779 13.5225 379.066 13.8403L379.306 12.8694C380.601 13.1892 381.893 13.5172 383.182 13.8535L382.929 14.8211C384.219 15.1576 385.504 15.5023 386.787 15.8551L387.052 14.891C388.339 15.245 389.622 15.6073 390.902 15.9778L390.624 16.9383C391.899 17.3076 393.171 17.6849 394.44 18.0703L394.73 17.1135C396.008 17.5019 397.283 17.8984 398.554 18.3031L398.25 19.2559C399.519 19.6599 400.784 20.072 402.045 20.4921L402.361 19.5434C403.627 19.9649 404.888 20.3945 406.146 20.8321L405.818 21.7766C407.072 22.2128 408.322 22.657 409.568 23.1091L409.909 22.169C411.166 22.625 412.418 23.0889 413.667 23.5609L413.314 24.4963C414.558 24.9667 415.799 25.445 417.036 25.9312L417.402 25.0005C418.642 25.4883 419.879 25.984 421.112 26.4876L420.734 27.4133C421.964 27.916 423.19 28.4265 424.413 28.9447L424.803 28.0241C426.033 28.5456 427.259 29.075 428.48 29.6122L428.077 30.5276C429.295 31.063 430.508 31.6062 431.717 32.157L432.131 31.2471C433.344 31.7997 434.553 32.3602 435.757 32.9282L435.33 33.8326C436.533 34.4003 437.732 34.9757 438.926 35.5586L439.365 34.66C440.565 35.2456 441.76 35.8389 442.951 36.4397L442.5 37.3325C443.687 37.9314 444.869 38.5378 446.047 39.1518L446.509 38.265C447.691 38.8811 448.868 39.5046 450.04 40.1357L449.566 41.0162C450.739 41.6472 451.906 42.2856 453.069 42.9314L453.554 42.0573C454.721 42.7053 455.883 43.3607 457.04 44.0235L456.542 44.8912C457.695 45.5518 458.844 46.2198 459.987 46.8951L460.496 46.0341C461.644 46.7123 462.787 47.3979 463.926 48.0907L463.406 48.945C464.543 49.6367 465.674 50.3356 466.801 51.0418L467.332 50.1945C468.462 50.903 469.587 51.6187 470.707 52.3416L470.165 53.1818C471.281 53.9023 472.392 54.63 473.498 55.3647L474.052 54.5317C475.163 55.2701 476.27 56.0156 477.371 56.7682L476.806 57.5938C477.904 58.3443 478.997 59.1018 480.084 59.8663L480.66 59.0482C481.751 59.8153 482.836 60.5893 483.916 61.3702L483.33 62.1806C484.407 62.9592 485.479 63.7446 486.545 64.5369L487.141 63.7344C488.212 64.5305 489.278 65.3335 490.338 66.1434L489.731 66.938C490.787 67.7452 491.838 68.5592 492.883 69.3799L493.501 68.5933C494.55 69.4167 495.593 70.2469 496.63 71.0837L496.002 71.8621C497.037 72.6967 498.066 73.5381 499.089 74.3861L499.727 73.6161C500.755 74.4674 501.776 75.3253 502.791 76.1898L502.143 76.9513C503.155 77.813 504.162 78.6812 505.162 79.5559L505.82 78.803C506.824 79.6806 507.822 80.5647 508.814 81.4552L508.146 82.1993C509.135 83.0876 510.118 83.9824 511.096 84.8835L511.773 84.1483C512.754 85.0525 513.729 85.963 514.697 86.8799L514.009 87.606C514.974 88.5198 515.934 89.44 516.886 90.3663L517.583 89.6493C518.54 90.5789 519.489 91.5147 520.433 92.4567L519.727 93.1644C520.667 94.1036 521.602 95.0489 522.53 96.0004L523.246 95.3021C524.177 96.2567 525.102 97.2174 526.021 98.1842L525.296 98.873C526.211 99.8366 527.12 100.806 528.023 101.782L528.757 101.103C529.662 102.082 530.561 103.066 531.454 104.057L530.711 104.727C531.6 105.714 532.483 106.707 533.36 107.707L534.112 107.047C534.991 108.05 535.864 109.058 536.73 110.072L535.969 110.722C536.832 111.733 537.689 112.749 538.539 113.771L539.308 113.132C540.16 114.158 541.005 115.189 541.844 116.225L541.066 116.854C541.902 117.887 542.731 118.926 543.553 119.971L544.339 119.352C545.164 120.4 545.982 121.454 546.793 122.513L545.999 123.121C546.807 124.176 547.608 125.236 548.402 126.302L549.204 125.705C550.001 126.774 550.79 127.848 551.572 128.928L550.763 129.515C551.542 130.591 552.315 131.673 553.08 132.76L553.898 132.184C554.666 133.274 555.427 134.37 556.181 135.471L555.355 136.036C556.106 137.132 556.849 138.234 557.584 139.34L558.417 138.786C559.155 139.896 559.886 141.011 560.61 142.132L559.77 142.674C560.491 143.791 561.205 144.912 561.911 146.039L562.758 145.508C563.467 146.637 564.168 147.772 564.862 148.912L564.007 149.432C564.698 150.566 565.381 151.706 566.056 152.85L566.917 152.341C567.595 153.489 568.265 154.642 568.928 155.8L568.06 156.297C568.72 157.451 569.373 158.609 570.019 159.773L570.893 159.288C571.539 160.453 572.178 161.623 572.809 162.798L571.928 163.271C572.557 164.441 573.177 165.615 573.791 166.794L574.678 166.333C575.293 167.516 575.9 168.704 576.5 169.896L575.607 170.345C576.204 171.533 576.794 172.726 577.376 173.923L578.275 173.485C578.857 174.683 579.432 175.885 579.998 177.091L579.093 177.516C579.657 178.718 580.214 179.925 580.763 181.135L581.674 180.723C582.224 181.938 582.767 183.157 583.301 184.38L582.385 184.781C582.917 185.998 583.441 187.22 583.957 188.446L584.879 188.058C585.395 189.285 585.904 190.516 586.404 191.751L585.478 192.127C585.976 193.358 586.467 194.593 586.95 195.833L587.882 195.47C588.366 196.713 588.842 197.961 589.31 199.212L588.373 199.562C588.838 200.805 589.294 202.052 589.743 203.303L590.684 202.966C591.133 204.219 591.575 205.476 592.008 206.738L591.062 207.062C591.493 208.319 591.916 209.58 592.331 210.844L593.281 210.532C593.697 211.8 594.105 213.072 594.505 214.348L593.55 214.647C593.946 215.912 594.334 217.18 594.714 218.452L595.672 218.166C596.053 219.443 596.425 220.723 596.789 222.006L595.827 222.279C596.19 223.558 596.544 224.84 596.89 226.126L597.855 225.867C598.202 227.154 598.539 228.445 598.869 229.739L597.899 229.985C598.226 231.27 598.545 232.558 598.854 233.849L599.827 233.616C600.138 234.911 600.44 236.21 600.734 237.512L599.759 237.732C600.052 239.03 600.336 240.331 600.612 241.635L601.59 241.428C601.865 242.73 602.132 244.035 602.39 245.344L601.409 245.537C601.666 246.838 601.914 248.142 602.153 249.448L603.137 249.268C603.377 250.579 603.609 251.893 603.832 253.211L602.846 253.377C603.068 254.69 603.282 256.006 603.486 257.324L604.475 257.17C604.679 258.483 604.874 259.799 605.061 261.117L604.07 261.257C604.256 262.57 604.434 263.886 604.602 265.204L605.594 265.077C605.763 266.4 605.924 267.726 606.075 269.054L605.082 269.167C605.232 270.489 605.375 271.814 605.508 273.141L606.503 273.041C606.636 274.362 606.76 275.685 606.875 277.011L605.879 277.098C605.994 278.419 606.1 279.743 606.197 281.07L607.195 280.996C607.292 282.327 607.381 283.66 607.462 284.996L606.463 285.056C606.543 286.382 606.614 287.711 606.676 289.042L607.675 288.995C607.736 290.321 607.789 291.65 607.834 292.98L606.834 293.013C606.878 294.34 606.914 295.668 606.94 296.999L607.94 296.979Z" stroke="black" stroke-width="2" stroke-dasharray="4 4" shape-rendering="crispEdges"/>
</g>
<defs>
<filter id="filter0_d_42_35" x="0" y="0" width="612" height="606" filterUnits="userSpaceOnUse" color-interpolation-filters="sRGB">
<feFlood flood-opacity="0" result="BackgroundImageFix"/>
<feColorMatrix in="SourceAlpha" type="matrix" values="0 0 0 0 0 0 0 0 0 0 0 0 0 0 0 0 0 0 127 0" result="hardAlpha"/>
<feMorphology radius="4" operator="dilate" in="SourceAlpha" result="effect1_dropShadow_42_35"/>
<feOffset/>
<feComposite in2="hardAlpha" operator="out"/>
<feColorMatrix type="matrix" values="0 0 0 0 1 0 0 0 0 1 0 0 0 0 1 0 0 0 0.01 0"/>
<feBlend mode="normal" in2="BackgroundImageFix" result="effect1_dropShadow_42_35"/>
<feBlend mode="normal" in="SourceGraphic" in2="effect1_dropShadow_42_35" result="shape"/>
</filter>
</defs>
</svg>
