<svg width="589" height="506" viewBox="0 0 589 506" fill="none" xmlns="http://www.w3.org/2000/svg">
<g filter="url(#filter0_d_42_42)">
<path d="M584.917 246.977C584.954 248.312 584.978 249.649 584.991 250.989L583.991 250.998C583.997 251.665 584 252.332 584 253C584 253.668 583.997 254.336 583.991 255.003L584.991 255.012C584.978 256.351 584.954 257.689 584.917 259.023L583.917 258.995C583.88 260.324 583.831 261.649 583.77 262.973L584.769 263.019C584.708 264.352 584.634 265.682 584.548 267.01L583.55 266.945C583.464 268.276 583.366 269.603 583.255 270.928L584.252 271.011C584.141 272.342 584.017 273.67 583.882 274.996L582.887 274.894C582.753 276.214 582.606 277.532 582.447 278.846L583.44 278.966C583.279 280.295 583.106 281.621 582.921 282.944L581.931 282.806C581.746 284.123 581.55 285.436 581.342 286.747L582.33 286.904C582.121 288.22 581.9 289.533 581.667 290.843L580.682 290.668C580.449 291.979 580.203 293.287 579.946 294.592L580.927 294.785C580.669 296.096 580.399 297.403 580.117 298.706L579.139 298.495C578.858 299.792 578.566 301.086 578.261 302.377L579.235 302.606C578.928 303.907 578.609 305.204 578.279 306.497L577.31 306.25C576.981 307.538 576.641 308.822 576.288 310.103L577.252 310.368C576.898 311.654 576.533 312.937 576.156 314.215L575.197 313.932C574.821 315.207 574.433 316.478 574.034 317.745L574.988 318.046C574.587 319.319 574.175 320.589 573.751 321.854L572.803 321.536C572.381 322.796 571.947 324.052 571.503 325.303L572.445 325.638C571.998 326.895 571.54 328.149 571.071 329.398L570.135 329.046C569.668 330.29 569.189 331.529 568.7 332.764L569.629 333.133C569.138 334.374 568.635 335.61 568.121 336.842L567.198 336.457C566.687 337.683 566.164 338.904 565.631 340.121L566.547 340.522C566.012 341.744 565.466 342.962 564.909 344.174L564 343.757C563.445 344.964 562.88 346.167 562.304 347.365L563.205 347.799C562.627 349.001 562.039 350.199 561.439 351.392L560.546 350.943C559.95 352.129 559.343 353.311 558.726 354.488L559.612 354.952C558.992 356.134 558.362 357.311 557.722 358.483L556.844 358.003C556.207 359.169 555.56 360.33 554.903 361.486L555.772 361.981C555.113 363.139 554.444 364.293 553.764 365.441L552.904 364.932C552.227 366.075 551.541 367.214 550.845 368.347L551.697 368.871C550.998 370.008 550.289 371.14 549.57 372.267L548.727 371.729C548.014 372.848 547.291 373.961 546.558 375.069L547.392 375.62C546.656 376.733 545.911 377.84 545.156 378.942L544.331 378.377C543.579 379.474 542.817 380.565 542.046 381.652L542.862 382.23C542.091 383.316 541.311 384.396 540.522 385.471L539.716 384.879C538.93 385.949 538.135 387.014 537.33 388.074L538.126 388.678C537.318 389.742 536.501 390.8 535.675 391.852L534.889 391.235C534.07 392.278 533.242 393.315 532.405 394.347L533.181 394.977C532.342 396.012 531.493 397.041 530.636 398.065L529.869 397.423C529.015 398.443 528.152 399.456 527.28 400.464L528.037 401.119C527.166 402.126 526.286 403.128 525.397 404.124L524.651 403.458C523.767 404.448 522.875 405.433 521.975 406.411L522.711 407.088C521.807 408.071 520.894 409.047 519.974 410.017L519.248 409.329C518.334 410.292 517.412 411.249 516.481 412.2L517.196 412.9C516.265 413.852 515.325 414.797 514.378 415.737L513.674 415.027C512.73 415.963 511.778 416.893 510.818 417.817L511.512 418.537C510.55 419.463 509.581 420.382 508.604 421.294L507.921 420.564C506.952 421.469 505.976 422.368 504.991 423.26L505.663 424.001C504.675 424.897 503.68 425.787 502.676 426.67L502.016 425.92C501.017 426.799 500.01 427.672 498.996 428.539L499.646 429.299C498.635 430.164 497.617 431.021 496.591 431.873L495.953 431.103C494.931 431.952 493.902 432.794 492.865 433.629L493.493 434.408C492.453 435.246 491.406 436.078 490.351 436.904L489.735 436.117C488.691 436.934 487.64 437.745 486.582 438.549L487.187 439.345C486.126 440.151 485.059 440.951 483.985 441.744L483.391 440.939C482.321 441.73 481.243 442.513 480.159 443.29L480.742 444.103C479.659 444.879 478.569 445.649 477.473 446.412L476.901 445.591C475.813 446.349 474.717 447.1 473.616 447.844L474.175 448.673C473.07 449.42 471.958 450.16 470.839 450.893L470.291 450.057C469.178 450.787 468.06 451.509 466.934 452.225L467.471 453.069C466.349 453.783 465.221 454.49 464.086 455.19L463.561 454.339C462.43 455.037 461.294 455.728 460.151 456.413L460.665 457.27C459.518 457.957 458.365 458.637 457.206 459.309L456.704 458.445C455.558 459.11 454.406 459.768 453.249 460.42L453.739 461.292C452.578 461.945 451.412 462.591 450.239 463.231L449.76 462.353C448.592 462.99 447.418 463.62 446.238 464.244L446.705 465.128C445.527 465.75 444.343 466.365 443.154 466.974L442.699 466.083C441.518 466.688 440.331 467.285 439.14 467.875L439.583 468.771C438.388 469.363 437.187 469.948 435.98 470.525L435.549 469.623C434.348 470.198 433.142 470.766 431.931 471.327L432.351 472.234C431.145 472.793 429.933 473.344 428.717 473.888L428.308 472.975C427.096 473.518 425.878 474.053 424.655 474.581L425.052 475.499C423.825 476.029 422.594 476.552 421.357 477.067L420.972 476.144C419.748 476.654 418.519 477.157 417.285 477.653L417.658 478.581C416.422 479.077 415.182 479.566 413.938 480.048L413.577 479.116C412.336 479.596 411.09 480.069 409.84 480.535L410.19 481.472C408.939 481.938 407.684 482.396 406.424 482.847L406.087 481.906C404.839 482.353 403.587 482.792 402.331 483.225L402.656 484.17C401.395 484.604 400.13 485.03 398.861 485.449L398.548 484.5C397.283 484.917 396.013 485.327 394.739 485.73L395.041 486.684C393.773 487.085 392.501 487.478 391.224 487.864L390.935 486.907C389.664 487.292 388.39 487.669 387.112 488.038L387.389 488.999C386.107 489.369 384.821 489.733 383.531 490.088L383.265 489.124C381.982 489.478 380.696 489.824 379.406 490.163L379.66 491.13C378.374 491.467 377.084 491.797 375.791 492.12L375.549 491.149C374.26 491.471 372.966 491.785 371.67 492.091L371.9 493.065C370.599 493.372 369.295 493.672 367.987 493.964L367.769 492.988C366.474 493.277 365.177 493.559 363.876 493.833L364.082 494.812C362.78 495.086 361.474 495.353 360.165 495.612L359.971 494.631C358.665 494.89 357.357 495.141 356.045 495.384L356.227 496.367C354.914 496.611 353.598 496.847 352.278 497.075L352.108 496.09C350.802 496.315 349.494 496.534 348.183 496.744L348.341 497.732C347.026 497.943 345.707 498.147 344.386 498.343L344.239 497.353C342.921 497.549 341.601 497.737 340.277 497.917L340.412 498.908C339.092 499.087 337.77 499.259 336.444 499.424L336.321 498.431C335.006 498.594 333.687 498.75 332.366 498.898L332.477 499.892C331.151 500.04 329.823 500.18 328.492 500.313L328.393 499.318C327.066 499.451 325.736 499.576 324.404 499.693L324.492 500.689C323.169 500.805 321.843 500.914 320.515 501.015L320.439 500.018C319.116 500.119 317.79 500.212 316.462 500.297L316.526 501.295C315.194 501.381 313.859 501.458 312.522 501.529L312.47 500.53C311.14 500.6 309.808 500.662 308.474 500.716L308.514 501.715C307.188 501.769 305.859 501.816 304.527 501.854L304.498 500.855C303.171 500.893 301.841 500.924 300.509 500.948L300.526 501.947C299.19 501.971 297.852 501.986 296.512 501.994L296.506 500.994C295.838 500.998 295.169 501 294.5 501C293.831 501 293.162 500.998 292.493 500.994L292.487 501.994C291.147 501.986 289.809 501.971 288.473 501.947L288.491 500.948C287.159 500.924 285.829 500.893 284.501 500.855L284.472 501.854C283.141 501.816 281.812 501.769 280.485 501.715L280.526 500.716C279.191 500.662 277.859 500.6 276.53 500.53L276.477 501.529C275.14 501.458 273.806 501.381 272.473 501.295L272.538 500.297C271.209 500.212 269.884 500.119 268.56 500.018L268.485 501.015C267.156 500.914 265.831 500.805 264.508 500.689L264.596 499.693C263.263 499.576 261.934 499.451 260.607 499.318L260.507 500.313C259.176 500.18 257.848 500.04 256.523 499.891L256.634 498.898C255.313 498.75 253.994 498.594 252.678 498.431L252.555 499.424C251.23 499.259 249.907 499.087 248.588 498.908L248.723 497.917C247.399 497.737 246.078 497.549 244.761 497.353L244.614 498.343C243.292 498.147 241.974 497.943 240.658 497.732L240.817 496.744C239.506 496.534 238.197 496.315 236.892 496.09L236.722 497.075C235.402 496.847 234.085 496.611 232.772 496.367L232.955 495.384C231.643 495.141 230.334 494.89 229.029 494.631L228.835 495.612C227.526 495.353 226.22 495.086 224.918 494.812L225.124 493.833C223.823 493.559 222.525 493.277 221.231 492.988L221.013 493.964C219.705 493.672 218.401 493.372 217.1 493.064L217.33 492.091C216.033 491.785 214.74 491.471 213.451 491.149L213.209 492.12C211.915 491.797 210.626 491.467 209.34 491.13L209.594 490.162C208.304 489.824 207.017 489.478 205.735 489.124L205.469 490.088C204.179 489.733 202.893 489.369 201.61 488.999L201.888 488.038C200.61 487.668 199.335 487.292 198.065 486.907L197.775 487.864C196.499 487.478 195.227 487.085 193.959 486.684L194.26 485.73C192.987 485.327 191.717 484.917 190.452 484.5L190.138 485.449C188.869 485.03 187.604 484.604 186.344 484.17L186.669 483.225C185.412 482.792 184.16 482.353 182.912 481.906L182.575 482.847C181.316 482.396 180.061 481.937 178.81 481.472L179.159 480.534C177.909 480.069 176.664 479.596 175.423 479.116L175.062 480.048C173.817 479.566 172.577 479.077 171.342 478.581L171.715 477.653C170.481 477.157 169.252 476.654 168.027 476.144L167.643 477.067C166.406 476.552 165.175 476.029 163.948 475.499L164.344 474.581C163.122 474.053 161.904 473.518 160.691 472.975L160.283 473.888C159.067 473.344 157.855 472.793 156.649 472.234L157.069 471.327C155.858 470.766 154.652 470.198 153.451 469.623L153.019 470.525C151.813 469.947 150.612 469.363 149.416 468.771L149.86 467.874C148.668 467.284 147.482 466.687 146.301 466.083L145.846 466.974C144.656 466.365 143.473 465.75 142.295 465.128L142.762 464.243C141.582 463.62 140.408 462.99 139.239 462.353L138.761 463.23C137.588 462.591 136.422 461.945 135.261 461.291L135.751 460.42C134.593 459.768 133.441 459.11 132.295 458.444L131.793 459.309C130.635 458.637 129.482 457.957 128.335 457.27L128.849 456.412C127.706 455.728 126.569 455.037 125.439 454.339L124.913 455.19C123.779 454.49 122.651 453.782 121.529 453.069L122.065 452.225C120.94 451.509 119.821 450.786 118.709 450.057L118.161 450.893C117.042 450.16 115.93 449.42 114.824 448.673L115.384 447.844C114.282 447.1 113.187 446.349 112.098 445.591L111.527 446.412C110.431 445.649 109.341 444.879 108.258 444.103L108.84 443.29C107.756 442.513 106.679 441.73 105.609 440.939L105.015 441.744C103.941 440.951 102.873 440.151 101.813 439.345L102.418 438.549C101.36 437.745 100.309 436.934 99.2651 436.116L98.6486 436.904C97.5942 436.078 96.5469 435.246 95.5069 434.408L96.1345 433.629C95.0982 432.794 94.069 431.952 93.0471 431.103L92.4084 431.873C91.3828 431.021 90.3646 430.163 89.3537 429.299L90.0035 428.539C88.9896 427.672 87.9831 426.799 86.9842 425.919L86.3234 426.67C85.3202 425.787 84.3246 424.897 83.3366 424.001L84.0084 423.26C83.0241 422.368 82.0475 421.469 81.0786 420.564L80.396 421.294C79.4189 420.381 78.4496 419.462 77.4883 418.537L78.1817 417.817C77.2219 416.893 76.27 415.963 75.3261 415.027L74.6219 415.737C73.6745 414.797 72.7351 413.851 71.8039 412.899L72.5187 412.2C71.5881 411.249 70.6658 410.292 69.7517 409.329L69.0263 410.017C68.1055 409.047 67.1931 408.07 66.2892 407.088L67.025 406.411C66.1245 405.432 65.2324 404.448 64.3489 403.458L63.6027 404.124C62.7142 403.128 61.8343 402.126 60.963 401.118L61.7195 400.464C60.8478 399.456 59.9849 398.442 59.1308 397.423L58.3643 398.065C57.5068 397.041 56.6582 396.012 55.8185 394.977L56.5951 394.347C55.7582 393.315 54.9302 392.278 54.1113 391.234L53.3247 391.852C52.4985 390.8 51.6815 389.742 50.8736 388.678L51.6699 388.073C50.8653 387.014 50.0699 385.949 49.2838 384.879L48.4778 385.471C47.6885 384.396 46.9085 383.316 46.1379 382.23L46.9534 381.651C46.1825 380.565 45.421 379.473 44.6691 378.376L43.8442 378.942C43.0891 377.84 42.3436 376.733 41.6077 375.62L42.4418 375.068C41.709 373.961 40.9859 372.847 40.2726 371.729L39.4295 372.267C38.7108 371.14 38.0021 370.008 37.3033 368.87L38.1553 368.347C37.4589 367.214 36.7725 366.075 36.0962 364.932L35.2354 365.441C34.5562 364.292 33.8871 363.139 33.2281 361.98L34.0973 361.486C33.4398 360.33 32.7924 359.169 32.1554 358.003L31.2778 358.482C30.6375 357.31 30.0075 356.134 29.3879 354.952L30.2735 354.487C29.6566 353.311 29.0501 352.129 28.4541 350.943L27.5605 351.391C26.9613 350.199 26.3726 349.001 25.7945 347.798L26.6958 347.365C26.1199 346.167 25.5545 344.964 25 343.757L24.0913 344.174C23.5342 342.961 22.988 341.744 22.4527 340.522L23.3686 340.121C22.8355 338.904 22.3132 337.682 21.8018 336.456L20.8789 336.841C20.3651 335.609 19.8623 334.373 19.3706 333.132L20.3003 332.764C19.8108 331.529 19.3323 330.289 18.865 329.046L17.9289 329.397C17.4597 328.148 17.0016 326.895 16.5548 325.637L17.4971 325.302C17.0526 324.051 16.6193 322.796 16.1973 321.536L15.2491 321.854C14.8252 320.588 14.4127 319.319 14.0117 318.045L14.9656 317.745C14.5666 316.478 14.1791 315.207 13.8032 313.932L12.844 314.215C12.4669 312.936 12.1014 311.654 11.7475 310.367L12.7117 310.102C12.3594 308.822 12.0187 307.537 11.6897 306.249L10.7208 306.497C10.3905 305.203 10.0719 303.906 9.76513 302.606L10.7384 302.376C10.4341 301.086 10.1415 299.792 9.86062 298.494L8.88326 298.706C8.60111 297.402 8.33082 296.095 8.07247 294.785L9.05359 294.591C8.79646 293.287 8.55122 291.979 8.31798 290.668L7.33343 290.843C7.10042 289.533 6.87931 288.22 6.67021 286.903L7.65783 286.746C7.4497 285.436 7.25352 284.122 7.06939 282.805L6.07902 282.944C5.89403 281.621 5.72114 280.295 5.56045 278.965L6.55322 278.845C6.39435 277.531 6.24746 276.214 6.11264 274.894L5.11782 274.995C4.98251 273.67 4.85931 272.342 4.74831 271.011L5.74485 270.928C5.63437 269.603 5.53604 268.275 5.44995 266.945L4.45204 267.009C4.36614 265.682 4.29237 264.351 4.23083 263.018L5.22977 262.972C5.16869 261.649 5.11971 260.323 5.08292 258.995L4.08331 259.023C4.04635 257.688 4.02164 256.351 4.00928 255.011L5.00924 255.002C5.00308 254.335 5 253.668 5 253C5 252.332 5.00308 251.664 5.00924 250.997L4.00928 250.988C4.02165 249.649 4.04636 248.311 4.08332 246.977L5.08294 247.005C5.11973 245.676 5.16871 244.351 5.22979 243.027L4.23085 242.981C4.29239 241.648 4.36617 240.318 4.45207 238.99L5.44998 239.055C5.53608 237.724 5.63441 236.397 5.74489 235.072L4.74835 234.989C4.85935 233.658 4.98255 232.33 5.11787 231.004L6.11269 231.106C6.24751 229.786 6.3944 228.468 6.55328 227.154L5.56051 227.034C5.7212 225.705 5.89409 224.379 6.07909 223.056L7.06945 223.194C7.25359 221.877 7.44977 220.564 7.65791 219.253L6.67029 219.096C6.87939 217.78 7.1005 216.467 7.33351 215.157L8.31806 215.332C8.55131 214.021 8.79655 212.713 9.05367 211.408L8.07256 211.215C8.33091 209.904 8.60121 208.597 8.88335 207.294L9.86072 207.505C10.1416 206.208 10.4342 204.914 10.7385 203.623L9.76523 203.394C10.072 202.093 10.3906 200.796 10.7209 199.503L11.6898 199.75C12.0188 198.462 12.3595 197.178 12.7118 195.897L11.7476 195.632C12.1015 194.346 12.467 193.063 12.8441 191.785L13.8033 192.068C14.1793 190.793 14.5668 189.522 14.9657 188.255L14.0119 187.954C14.4129 186.681 14.8254 185.411 15.2493 184.146L16.1975 184.464C16.6194 183.204 17.0527 181.948 17.4973 180.697L16.555 180.362C17.0017 179.105 17.4598 177.851 17.9291 176.602L18.8652 176.954C19.3325 175.71 19.8109 174.471 20.3004 173.236L19.3708 172.867C19.8624 171.626 20.3652 170.39 20.879 169.158L21.802 169.543C22.3133 168.317 22.8356 167.096 23.3688 165.879L22.4528 165.478C22.9881 164.256 23.5344 163.038 24.0914 161.826L25.0001 162.243C25.5547 161.036 26.12 159.833 26.696 158.635L25.7947 158.201C26.3727 156.999 26.9614 155.801 27.5607 154.608L28.4543 155.057C29.0503 153.871 29.6568 152.689 30.2737 151.512L29.388 151.048C30.0076 149.866 30.6376 148.689 31.278 147.517L32.1555 147.997C32.7926 146.831 33.44 145.67 34.0975 144.514L33.2283 144.019C33.8872 142.861 34.5564 141.707 35.2356 140.559L36.0963 141.068C36.7727 139.925 37.4591 138.786 38.1554 137.653L37.3034 137.129C38.0022 135.992 38.711 134.86 39.4297 133.733L40.2728 134.271C40.9861 133.152 41.7092 132.039 42.442 130.931L41.6079 130.38C42.3437 129.267 43.0892 128.16 43.8444 127.058L44.6692 127.623C45.4211 126.526 46.1826 125.435 46.9536 124.348L46.1381 123.77C46.9087 122.684 47.6887 121.604 48.478 120.529L49.284 121.121C50.0701 120.051 50.8655 118.986 51.6701 117.926L50.8738 117.321C51.6816 116.258 52.4987 115.2 53.3249 114.148L54.1115 114.765C54.9304 113.722 55.7584 112.685 56.5953 111.653L55.8187 111.023C56.6584 109.988 57.507 108.959 58.3644 107.935L59.131 108.577C59.9851 107.557 60.848 106.544 61.7196 105.536L60.9632 104.881C61.8345 103.874 62.7144 102.872 63.6029 101.876L64.3491 102.542C65.2326 101.552 66.1247 100.567 67.0252 99.5888L66.2894 98.9116C67.1933 97.9294 68.1057 96.9531 69.0265 95.9829L69.7518 96.6713C70.6659 95.7081 71.5883 94.7508 72.5189 93.7997L71.8041 93.1003C72.7353 92.1485 73.6747 91.2027 74.6221 90.2631L75.3263 90.9731C76.2702 90.037 77.2221 89.107 78.1819 88.1831L77.4885 87.4626C78.4498 86.5374 79.4191 85.6183 80.3962 84.7056L81.0788 85.4363C82.0477 84.5312 83.0243 83.6323 84.0086 82.7396L83.3368 81.9988C84.3248 81.1029 85.3204 80.2132 86.3236 79.3298L86.9844 80.0803C87.9833 79.2008 88.9898 78.3276 90.0037 77.4607L89.3539 76.7007C90.3648 75.8364 91.383 74.9786 92.4086 74.1271L93.0474 74.8965C94.0692 74.0481 95.0984 73.2061 96.1347 72.3706L95.5071 71.5921C96.5472 70.7536 97.5945 69.9215 98.6489 69.0961L99.2653 69.8835C100.309 69.0661 101.36 68.2553 102.418 67.4509L101.813 66.6548C102.874 65.8487 103.941 65.049 105.015 64.256L105.609 65.0605C106.679 64.2703 107.757 63.4867 108.841 62.7097L108.258 61.8969C109.341 61.1206 110.431 60.3509 111.527 59.5879L112.099 60.4087C113.187 59.6511 114.283 58.9 115.384 58.1557L114.825 57.327C115.93 56.5801 117.042 55.84 118.161 55.1066L118.709 55.9429C119.822 55.2135 120.94 54.4908 122.066 53.775L121.529 52.9313C122.651 52.2174 123.779 51.5102 124.914 50.8099L125.439 51.6608C126.57 50.9629 127.706 50.2717 128.849 49.5875L128.335 48.7295C129.482 48.0429 130.635 47.3633 131.794 46.6906L132.296 47.5554C133.442 46.8901 134.594 46.2316 135.751 45.58L135.261 44.7085C136.422 44.0552 137.588 43.4088 138.761 42.7694L139.24 43.6473C140.408 43.01 141.582 42.3797 142.762 41.7565L142.295 40.8723C143.473 40.2499 144.657 39.6345 145.846 39.0262L146.301 39.9165C147.482 39.3125 148.669 38.7154 149.86 38.1254L149.417 37.2292C150.612 36.6373 151.813 36.0525 153.02 35.4748L153.451 36.3767C154.652 35.8018 155.858 35.234 157.069 34.6733L156.649 33.7658C157.855 33.2073 159.067 32.656 160.283 32.1117L160.692 33.0246C161.904 32.4821 163.122 31.9468 164.345 31.4187L163.948 30.5007C165.175 29.9709 166.406 29.4483 167.643 28.933L168.028 29.856C169.252 29.3458 170.481 28.8427 171.715 28.3469L171.342 27.419C172.578 26.9227 173.818 26.4336 175.062 25.9518L175.423 26.8843C176.664 26.4041 177.91 25.9311 179.16 25.4654L178.81 24.5283C180.061 24.0625 181.316 23.6039 182.576 23.1528L182.913 24.0942C184.161 23.6473 185.413 23.2076 186.669 22.7753L186.344 21.8297C187.605 21.396 188.869 20.9697 190.139 20.5507L190.452 21.5003C191.717 21.0827 192.987 20.6725 194.261 20.2698L193.959 19.3163C195.227 18.9153 196.499 18.5217 197.776 18.1356L198.065 19.0927C199.336 18.7084 200.61 18.3314 201.888 17.9619L201.611 17.0012C202.893 16.6305 204.179 16.2673 205.469 15.9116L205.735 16.8756C207.018 16.5221 208.304 16.176 209.594 15.8375L209.34 14.8702C210.626 14.5328 211.916 14.2028 213.209 13.8803L213.451 14.8506C214.74 14.5291 216.033 14.2151 217.33 13.9086L217.1 12.9354C218.401 12.628 219.705 12.3282 221.013 12.0359L221.231 13.0118C222.525 12.7227 223.823 12.441 225.124 12.1668L224.918 11.1883C226.22 10.914 227.526 10.6471 228.835 10.3878L229.029 11.3688C230.335 11.1103 231.643 10.8594 232.955 10.6161L232.773 9.63284C234.086 9.38928 235.402 9.15332 236.722 8.92504L236.892 9.9104C238.198 9.68465 239.506 9.46641 240.817 9.25575L240.659 8.2684C241.974 8.05711 243.293 7.85341 244.614 7.65736L244.761 8.64654C246.079 8.45108 247.399 8.26326 248.723 8.08312L248.588 7.09225C249.908 6.91266 251.23 6.74069 252.556 6.57638L252.679 7.56879C253.994 7.4057 255.313 7.25018 256.634 7.1023L256.523 6.10851C257.849 5.96019 259.177 5.81952 260.508 5.68657L260.607 6.68162C261.934 6.54906 263.264 6.42418 264.596 6.30705L264.508 5.31089C265.831 5.19459 267.157 5.0859 268.485 4.98487L268.561 5.98199C269.884 5.88134 271.21 5.78831 272.538 5.70296L272.474 4.70502C273.806 4.61942 275.141 4.54152 276.478 4.47137L276.53 5.46999C277.86 5.40024 279.192 5.33817 280.526 5.28384L280.486 4.28466C281.812 4.23065 283.142 4.18426 284.473 4.14555L284.502 5.14513C285.829 5.10653 287.159 5.07559 288.491 5.05236L288.474 4.05251C289.81 4.02921 291.148 4.01364 292.488 4.00585L292.494 5.00583C293.162 5.00195 293.831 5 294.5 5C295.169 5 295.838 5.00195 296.507 5.00583L296.513 4.00585C297.853 4.01364 299.191 4.02922 300.527 4.05252L300.509 5.05237C301.841 5.0756 303.171 5.10654 304.499 5.14514L304.528 4.14556C305.859 4.18428 307.188 4.23067 308.515 4.28468L308.474 5.28386C309.809 5.33819 311.141 5.40026 312.47 5.47002L312.523 4.47139C313.86 4.54154 315.194 4.61945 316.527 4.70505L316.462 5.70299C317.791 5.78834 319.116 5.88137 320.44 5.98203L320.515 4.98491C321.844 5.08594 323.169 5.19463 324.492 5.31094L324.404 6.30709C325.737 6.42423 327.066 6.5491 328.393 6.68166L328.493 5.68661C329.824 5.81957 331.152 5.96023 332.477 6.10856L332.366 7.10235C333.687 7.25023 335.006 7.40575 336.322 7.56884L336.445 6.57644C337.77 6.74074 339.093 6.91272 340.412 7.09231L340.277 8.08317C341.601 8.26332 342.922 8.45114 344.239 8.6466L344.386 7.65743C345.708 7.85347 347.026 8.05717 348.342 8.26847L348.183 9.25581C349.494 9.46648 350.803 9.68471 352.108 9.91047L352.278 8.9251C353.598 9.15339 354.915 9.38935 356.228 9.63291L356.045 10.6161C357.357 10.8595 358.666 11.1104 359.971 11.3689L360.165 10.3879C361.474 10.6472 362.78 10.914 364.082 11.1884L363.876 12.1669C365.177 12.4411 366.475 12.7228 367.769 13.0119L367.987 12.036C369.295 12.3282 370.599 12.6281 371.9 12.9355L371.67 13.9087C372.967 14.2152 374.26 14.5292 375.549 14.8507L375.791 13.8804C377.085 14.2029 378.374 14.5329 379.66 14.8703L379.406 15.8376C380.696 16.1761 381.983 16.5222 383.265 16.8757L383.531 15.9117C384.821 16.2674 386.108 16.6306 387.39 17.0013L387.112 17.962C388.39 18.3315 389.665 18.7085 390.935 19.0928L391.225 18.1357C392.501 18.5218 393.773 18.9154 395.041 19.3164L394.74 20.2699C396.013 20.6726 397.283 21.0828 398.548 21.5005L398.862 20.5508C400.131 20.9698 401.396 21.3961 402.656 21.8298L402.331 22.7754C403.588 23.2077 404.84 23.6474 406.088 24.0943L406.425 23.1529C407.684 23.604 408.939 24.0626 410.19 24.5284L409.841 25.4655C411.091 25.9312 412.336 26.4042 413.577 26.8845L413.938 25.9519C415.183 26.4337 416.423 26.9228 417.658 27.4191L417.285 28.347C418.519 28.8429 419.748 29.3459 420.973 29.8562L421.357 28.9331C422.594 29.4484 423.825 29.971 425.052 30.5008L424.656 31.4188C425.878 31.9469 427.096 32.4822 428.309 33.0247L428.717 32.1119C429.933 32.6561 431.145 33.2075 432.351 33.7659L431.931 34.6734C433.142 35.2341 434.348 35.8019 435.549 36.3769L435.981 35.4749C437.187 36.0526 438.388 36.6374 439.584 37.2294L439.14 38.1255C440.332 38.7155 441.518 39.3126 442.699 39.9166L443.154 39.0263C444.344 39.6346 445.527 40.25 446.705 40.8724L446.238 41.7566C447.418 42.3798 448.592 43.0101 449.761 43.6474L450.239 42.7695C451.412 43.4089 452.578 44.0553 453.739 44.7086L453.249 45.5801C454.407 46.2317 455.559 46.8902 456.705 47.5556L457.207 46.6908C458.365 47.3634 459.518 48.0431 460.665 48.7297L460.151 49.5876C461.294 50.2719 462.431 50.963 463.561 51.661L464.087 50.81C465.221 51.5104 466.349 52.2175 467.471 52.9315L466.935 53.7752C468.06 54.491 469.179 55.2136 470.291 55.943L470.839 55.1067C471.958 55.8401 473.07 56.5803 474.176 57.3272L473.616 58.1558C474.718 58.9002 475.813 59.6512 476.902 60.4089L477.473 59.5881C478.569 60.3511 479.659 61.1207 480.742 61.8971L480.16 62.7098C481.244 63.4868 482.321 64.2705 483.391 65.0607L483.985 64.2562C485.059 65.0492 486.127 65.8488 487.187 66.655L486.582 67.4511C487.64 68.2554 488.691 69.0663 489.735 69.8837L490.351 69.0963C491.406 69.9217 492.453 70.7537 493.493 71.5923L492.865 72.3708C493.902 73.2063 494.931 74.0483 495.953 74.8967L496.592 74.1273C497.617 74.9787 498.635 75.8366 499.646 76.7008L498.997 77.4609C500.01 78.3278 501.017 79.201 502.016 80.0805L502.677 79.33C503.68 80.2133 504.675 81.103 505.663 81.999L504.992 82.7398C505.976 83.6324 506.953 84.5314 507.921 85.4365L508.604 84.7057C509.581 85.6185 510.55 86.5376 511.512 87.4628L510.818 88.1833C511.778 89.1072 512.73 90.0372 513.674 90.9733L514.378 90.2633C515.326 91.2029 516.265 92.1487 517.196 93.1005L516.481 93.7999C517.412 94.751 518.334 95.7083 519.248 96.6715L519.974 95.9831C520.894 96.9533 521.807 97.9296 522.711 98.9118L521.975 99.589C522.875 100.568 523.768 101.552 524.651 102.542L525.397 101.876C526.286 102.872 527.166 103.874 528.037 104.882L527.281 105.536C528.152 106.544 529.015 107.558 529.869 108.577L530.636 107.935C531.493 108.959 532.342 109.988 533.182 111.023L532.405 111.653C533.242 112.685 534.07 113.722 534.889 114.766L535.675 114.148C536.501 115.2 537.319 116.258 538.126 117.322L537.33 117.927C538.135 118.986 538.93 120.051 539.716 121.121L540.522 120.529C541.312 121.604 542.091 122.684 542.862 123.77L542.047 124.349C542.818 125.435 543.579 126.527 544.331 127.624L545.156 127.058C545.911 128.16 546.656 129.267 547.392 130.38L546.558 130.932C547.291 132.039 548.014 133.153 548.727 134.271L549.57 133.733C550.289 134.86 550.998 135.992 551.697 137.13L550.845 137.653C551.541 138.786 552.227 139.925 552.904 141.068L553.765 140.559C554.444 141.708 555.113 142.861 555.772 144.02L554.903 144.514C555.56 145.67 556.208 146.831 556.845 147.997L557.722 147.518C558.363 148.69 558.993 149.866 559.612 151.048L558.726 151.513C559.343 152.689 559.95 153.871 560.546 155.057L561.439 154.609C562.039 155.801 562.627 156.999 563.205 158.202L562.304 158.635C562.88 159.833 563.445 161.036 564 162.243L564.909 161.826C565.466 163.039 566.012 164.256 566.547 165.478L565.631 165.879C566.165 167.096 566.687 168.318 567.198 169.544L568.121 169.159C568.635 170.391 569.138 171.627 569.629 172.868L568.7 173.236C569.189 174.471 569.668 175.711 570.135 176.954L571.071 176.603C571.54 177.852 571.998 179.105 572.445 180.363L571.503 180.698C571.947 181.949 572.381 183.204 572.803 184.464L573.751 184.146C574.175 185.412 574.587 186.681 574.988 187.955L574.034 188.255C574.433 189.522 574.821 190.793 575.197 192.068L576.156 191.785C576.533 193.064 576.899 194.346 577.253 195.633L576.288 195.898C576.641 197.178 576.981 198.463 577.31 199.751L578.279 199.503C578.609 200.797 578.928 202.094 579.235 203.394L578.262 203.624C578.566 204.914 578.859 206.208 579.139 207.506L580.117 207.294C580.399 208.598 580.669 209.905 580.928 211.215L579.946 211.409C580.204 212.713 580.449 214.021 580.682 215.332L581.667 215.157C581.9 216.467 582.121 217.78 582.33 219.097L581.342 219.254C581.55 220.564 581.746 221.878 581.931 223.195L582.921 223.056C583.106 224.379 583.279 225.705 583.44 227.035L582.447 227.155C582.606 228.469 582.753 229.786 582.887 231.106L583.882 231.005C584.018 232.33 584.141 233.658 584.252 234.989L583.255 235.072C583.366 236.397 583.464 237.725 583.55 239.055L584.548 238.991C584.634 240.318 584.708 241.649 584.769 242.982L583.77 243.028C583.831 244.351 583.88 245.677 583.917 247.005L584.917 246.977Z" stroke="black" stroke-width="2" stroke-dasharray="4 4" shape-rendering="crispEdges"/>
</g>
<defs>
<filter id="filter0_d_42_42" x="0" y="0" width="589" height="506" filterUnits="userSpaceOnUse" color-interpolation-filters="sRGB">
<feFlood flood-opacity="0" result="BackgroundImageFix"/>
<feColorMatrix in="SourceAlpha" type="matrix" values="0 0 0 0 0 0 0 0 0 0 0 0 0 0 0 0 0 0 127 0" result="hardAlpha"/>
<feMorphology radius="4" operator="dilate" in="SourceAlpha" result="effect1_dropShadow_42_42"/>
<feOffset/>
<feComposite in2="hardAlpha" operator="out"/>
<feColorMatrix type="matrix" values="0 0 0 0 1 0 0 0 0 1 0 0 0 0 1 0 0 0 0.01 0"/>
<feBlend mode="normal" in2="BackgroundImageFix" result="effect1_dropShadow_42_42"/>
<feBlend mode="normal" in="SourceGraphic" in2="effect1_dropShadow_42_42" result="shape"/>
</filter>
</defs>
</svg>
