<svg width="64" height="66" viewBox="0 0 64 66" fill="none" xmlns="http://www.w3.org/2000/svg">
<path d="M49.7352 43.367C46.8091 48.3345 41.7556 52.296 36.1728 54.2685C30.5914 56.2405 24.5962 56.1891 19.7243 53.3192C14.8524 50.4494 11.9009 45.2308 10.9199 39.3931C9.93855 33.554 10.9535 27.2135 13.8796 22.2461C16.8057 17.2786 21.8592 13.3171 27.442 11.3446C33.0234 9.37261 39.0186 9.42408 43.8905 12.2939C48.7624 15.1637 51.7139 20.3824 52.6949 26.22C53.6763 32.0591 52.6613 38.3996 49.7352 43.367Z" stroke="#331B3B" stroke-opacity="0.64" stroke-width="2"/>
<g clip-path="url(#clip0_42_64)">
<path fill-rule="evenodd" clip-rule="evenodd" d="M41.2571 41.8066H37.5586V35.5074C37.5586 33.7803 36.9024 32.8151 35.5354 32.8151C34.0483 32.8151 33.2713 33.8195 33.2713 35.5074V41.8066H29.7071V29.8066H33.2713V31.423C33.2713 31.423 34.343 29.44 36.8895 29.44C39.4348 29.44 41.2571 30.9943 41.2571 34.209V41.8066ZM25.4549 28.2353C24.2409 28.2353 23.2571 27.2438 23.2571 26.021C23.2571 24.7981 24.2409 23.8066 25.4549 23.8066C26.669 23.8066 27.6522 24.7981 27.6522 26.021C27.6522 27.2438 26.669 28.2353 25.4549 28.2353ZM23.6145 41.8066H27.3311V29.8066H23.6145V41.8066Z" fill="#331B3B"/>
</g>
<defs>
<clipPath id="clip0_42_64">
<rect width="18" height="18" fill="white" transform="translate(23.2571 23.8066)"/>
</clipPath>
</defs>
</svg>
