<svg width="64" height="66" viewBox="0 0 64 66" fill="none" xmlns="http://www.w3.org/2000/svg">
<path d="M49.7352 43.367C46.8091 48.3345 41.7556 52.296 36.1728 54.2685C30.5914 56.2405 24.5962 56.1891 19.7243 53.3192C14.8524 50.4494 11.9009 45.2308 10.9199 39.3931C9.93855 33.554 10.9535 27.2135 13.8796 22.2461C16.8057 17.2786 21.8592 13.3171 27.442 11.3446C33.0234 9.37261 39.0186 9.42408 43.8905 12.2939C48.7624 15.1637 51.7139 20.3824 52.6949 26.22C53.6763 32.0591 52.6613 38.3996 49.7352 43.367Z" stroke="#331B3B" stroke-opacity="0.64" stroke-width="2"/>
<g clip-path="url(#clip0_42_70)">
<path d="M32.7067 23.1269C35.8614 23.1269 36.2317 23.141 37.4786 23.1972C38.6317 23.2488 39.2552 23.441 39.6724 23.605C40.2255 23.8207 40.6192 24.0738 41.0317 24.4863C41.4442 24.8988 41.7021 25.2925 41.913 25.8457C42.0724 26.2628 42.2692 26.8863 42.3208 28.0394C42.3771 29.2863 42.3911 29.6566 42.3911 32.8113C42.3911 35.966 42.3771 36.3363 42.3208 37.5832C42.2692 38.7363 42.0771 39.3597 41.913 39.7769C41.6974 40.33 41.4442 40.7238 41.0317 41.1363C40.6192 41.5488 40.2255 41.8066 39.6724 42.0175C39.2552 42.1769 38.6317 42.3738 37.4786 42.4253C36.2317 42.4816 35.8614 42.4957 32.7067 42.4957C29.5521 42.4957 29.1817 42.4816 27.9349 42.4253C26.7817 42.3738 26.1583 42.1816 25.7411 42.0175C25.188 41.8019 24.7942 41.5488 24.3817 41.1363C23.9692 40.7238 23.7114 40.33 23.5005 39.7769C23.3411 39.3597 23.1442 38.7363 23.0927 37.5832C23.0364 36.3363 23.0224 35.966 23.0224 32.8113C23.0224 29.6566 23.0364 29.2863 23.0927 28.0394C23.1442 26.8863 23.3364 26.2628 23.5005 25.8457C23.7161 25.2925 23.9692 24.8988 24.3817 24.4863C24.7942 24.0738 25.188 23.816 25.7411 23.605C26.1583 23.4457 26.7817 23.2488 27.9349 23.1972C29.1817 23.1363 29.5521 23.1269 32.7067 23.1269ZM32.7067 20.9988C29.5005 20.9988 29.0974 21.0128 27.8364 21.0691C26.5802 21.1253 25.7224 21.3269 24.9724 21.6175C24.1942 21.9175 23.538 22.3253 22.8817 22.9816C22.2255 23.6378 21.8224 24.2988 21.5177 25.0722C21.2271 25.8222 21.0255 26.68 20.9692 27.941C20.913 29.1972 20.8989 29.6003 20.8989 32.8066C20.8989 36.0128 20.913 36.416 20.9692 37.6769C21.0255 38.9332 21.2271 39.791 21.5177 40.5457C21.8177 41.3238 22.2255 41.98 22.8817 42.6363C23.538 43.2925 24.1989 43.6957 24.9724 44.0003C25.7224 44.291 26.5802 44.4925 27.8411 44.5488C29.1021 44.605 29.5005 44.6191 32.7114 44.6191C35.9224 44.6191 36.3208 44.605 37.5817 44.5488C38.838 44.4925 39.6958 44.291 40.4505 44.0003C41.2286 43.7003 41.8849 43.2925 42.5411 42.6363C43.1974 41.98 43.6005 41.3191 43.9052 40.5457C44.1958 39.7957 44.3974 38.9378 44.4536 37.6769C44.5099 36.416 44.5239 36.0175 44.5239 32.8066C44.5239 29.5957 44.5099 29.1972 44.4536 27.9363C44.3974 26.68 44.1958 25.8222 43.9052 25.0675C43.6052 24.2894 43.1974 23.6332 42.5411 22.9769C41.8849 22.3207 41.2239 21.9175 40.4505 21.6128C39.7005 21.3222 38.8427 21.1207 37.5817 21.0644C36.3161 21.0128 35.913 20.9988 32.7067 20.9988Z" fill="#331B3B"/>
<path d="M32.7067 26.741C29.3599 26.741 26.6411 29.455 26.6411 32.8066C26.6411 36.1582 29.3599 38.8722 32.7067 38.8722C36.0536 38.8722 38.7724 36.1535 38.7724 32.8066C38.7724 29.4597 36.0536 26.741 32.7067 26.741ZM32.7067 36.7441C30.5317 36.7441 28.7692 34.9816 28.7692 32.8066C28.7692 30.6316 30.5317 28.8691 32.7067 28.8691C34.8817 28.8691 36.6442 30.6316 36.6442 32.8066C36.6442 34.9816 34.8817 36.7441 32.7067 36.7441Z" fill="#331B3B"/>
<path d="M39.0113 27.9177C39.7932 27.9177 40.427 27.2839 40.427 26.5021C40.427 25.7202 39.7932 25.0864 39.0113 25.0864C38.2295 25.0864 37.5957 25.7202 37.5957 26.5021C37.5957 27.2839 38.2295 27.9177 39.0113 27.9177Z" fill="#331B3B"/>
</g>
<defs>
<clipPath id="clip0_42_70">
<rect width="24" height="24" fill="white" transform="translate(20.7068 20.8066)"/>
</clipPath>
</defs>
</svg>
