<svg width="64" height="66" viewBox="0 0 64 66" fill="none" xmlns="http://www.w3.org/2000/svg">
<path d="M49.7352 43.367C46.8091 48.3345 41.7556 52.296 36.1728 54.2685C30.5914 56.2405 24.5962 56.1891 19.7243 53.3192C14.8524 50.4494 11.9009 45.2308 10.9199 39.3931C9.93855 33.554 10.9535 27.2135 13.8796 22.2461C16.8057 17.2786 21.8592 13.3171 27.442 11.3446C33.0234 9.37261 39.0186 9.42408 43.8905 12.2939C48.7624 15.1637 51.7139 20.3824 52.6949 26.22C53.6763 32.0591 52.6613 38.3996 49.7352 43.367Z" stroke="#331B3B" stroke-opacity="0.64" stroke-width="2"/>
<g clip-path="url(#clip0_42_57)">
<path fill-rule="evenodd" clip-rule="evenodd" d="M33.6282 42.8066V33.8066H36.3606L36.8069 29.8066H33.6282V27.8584C33.6282 26.8284 33.6545 25.8066 35.0938 25.8066H36.5516V22.9468C36.5516 22.9038 35.2994 22.8066 34.0326 22.8066C31.3869 22.8066 29.7303 24.4638 29.7303 27.5068V29.8066H26.8069V33.8066H29.7303V42.8066H33.6282Z" fill="#331B3B"/>
</g>
<defs>
<clipPath id="clip0_42_57">
<rect width="10" height="20" fill="white" transform="translate(26.8069 22.8066)"/>
</clipPath>
</defs>
</svg>
