<svg width="36" height="40" viewBox="0 0 36 40" fill="none" xmlns="http://www.w3.org/2000/svg">
<g filter="url(#filter0_d_42_107)">
<path d="M16.3562 23.3899C14.728 23.3899 13.1001 22.7699 11.8606 21.5304C9.38207 19.0519 9.38207 15.0183 11.8606 12.5397C14.3396 10.0612 18.3732 10.0608 20.8517 12.5397C23.3307 15.0183 23.3307 19.0519 20.8517 21.5304C19.6122 22.7699 17.984 23.3899 16.3562 23.3899ZM16.3558 11.468C14.9296 11.468 13.503 12.0108 12.4172 13.0967C10.2454 15.2684 10.2454 18.8018 12.4172 20.9735C14.5889 23.1453 18.1227 23.1453 20.2944 20.9735C22.4662 18.8018 22.4662 15.2684 20.2944 13.0967C19.2085 12.0112 17.7824 11.468 16.3558 11.468Z" fill="#331B3B"/>
<path d="M29.272 27.8646L24.0372 22.6294C23.5591 22.1513 22.8336 22.0764 22.2707 22.3935L21.1155 21.2383C23.3196 18.7444 23.2361 14.9247 20.8512 12.5402C18.3731 10.0613 14.3391 10.0617 11.8602 12.5402C9.38158 15.0188 9.38158 19.0524 11.8602 21.5309C13.0996 22.77 14.7275 23.3904 16.3557 23.3904C17.8603 23.3904 19.3609 22.8539 20.5586 21.7956L21.7138 22.9508C21.3967 23.5136 21.4712 24.2387 21.9497 24.7173L27.1849 29.9521C27.4626 30.2302 27.8332 30.3834 28.2283 30.3834C28.6233 30.3834 28.994 30.2302 29.2716 29.9521C29.5497 29.674 29.7029 29.3034 29.7029 28.9084C29.7029 28.5133 29.5501 28.1423 29.272 27.8646ZM12.4175 20.974C10.2457 18.8023 10.2457 15.2689 12.4175 13.0972C13.5033 12.0113 14.9295 11.4685 16.3561 11.4685C17.7827 11.4685 19.2088 12.0113 20.2947 13.0972C22.4665 15.2689 22.4665 18.8023 20.2947 20.974C18.123 23.1458 14.5888 23.1454 12.4175 20.974ZM28.7151 29.3952C28.4567 29.6536 28.0006 29.6536 27.7419 29.3952L22.5067 24.16C22.2384 23.8913 22.2384 23.455 22.5067 23.1863C22.641 23.0524 22.817 22.9851 22.9935 22.9851C23.1695 22.9851 23.346 23.052 23.4799 23.1863L28.7147 28.4216C28.8439 28.5507 28.9152 28.7236 28.9152 28.908C28.9152 29.0923 28.8443 29.2656 28.7151 29.3952Z" fill="#331B3B"/>
<path d="M12.2342 19.2986C12.1149 19.2986 11.9971 19.2446 11.9199 19.1426C11.7888 18.9693 11.8226 18.722 11.9963 18.5908L17.6802 14.289C17.7692 14.2221 17.8818 14.1953 17.9913 14.2162C18.1004 14.237 18.1961 14.3028 18.254 14.3977L20.0142 17.2828L20.6066 16.8574C20.7822 16.7298 21.0288 16.7708 21.1564 16.9476C21.2832 17.1244 21.243 17.3702 21.0662 17.4974L20.1292 18.1705C20.0402 18.2344 19.9279 18.2592 19.8216 18.2367C19.7141 18.2151 19.6203 18.1493 19.5636 18.0559L17.809 15.1799L12.4721 19.2186C12.4004 19.2726 12.3169 19.2986 12.2342 19.2986Z" fill="#331B3B"/>
<path d="M26.5796 23.8629C26.7974 23.8629 26.9735 23.6869 26.9735 23.4691V4.24032C26.9735 3.15719 26.0924 2.27612 25.0093 2.27612H8.26067C7.17755 2.27612 6.29688 3.15719 6.29688 4.24032V35.7599C6.29688 36.8427 7.17795 37.7237 8.26067 37.7237H25.0089C26.092 37.7237 26.9731 36.8427 26.9731 35.7599V30.9749C26.9731 30.7571 26.797 30.581 26.5792 30.581C26.3614 30.581 26.1854 30.7571 26.1854 30.9749V31.993H7.0846V20.3107L8.1047 21.9803C8.1626 22.0752 8.25831 22.141 8.36741 22.1618C8.39183 22.1666 8.41625 22.1689 8.44067 22.1689C8.52574 22.1689 8.60924 22.1414 8.67856 22.0894L9.92711 21.1449C10.1004 21.0133 10.1347 20.7664 10.0035 20.5931C9.87196 20.4198 9.62501 20.3855 9.45171 20.5167L8.55016 21.1989L7.0846 18.8002V6.79451H26.1857V12.8498L23.348 14.8888C23.1711 15.0156 23.1306 15.2618 23.2578 15.4386C23.3346 15.5457 23.4555 15.6029 23.578 15.6029C23.6575 15.6029 23.7379 15.5788 23.8072 15.5288L26.1857 13.8198V23.4695C26.1857 23.6865 26.3618 23.8629 26.5796 23.8629ZM26.1857 32.7808V35.7596C26.1857 36.4079 25.658 36.9356 25.0093 36.9356H8.26067C7.61238 36.9356 7.0846 36.4079 7.0846 35.7596V32.7808H26.1857ZM7.0846 6.00679V4.24032C7.0846 3.59162 7.61238 3.06385 8.26067 3.06385H25.0089C25.6576 3.06385 26.1854 3.59162 26.1854 4.24032V6.00679H7.0846V6.00679Z" fill="#331B3B"/>
<path d="M16.6349 36.2778C15.8638 36.2778 15.2363 35.6504 15.2363 34.8792C15.2363 34.108 15.8638 33.4802 16.6349 33.4802C17.4061 33.4802 18.0335 34.108 18.0335 34.8792C18.0335 35.6504 17.4061 36.2778 16.6349 36.2778ZM16.6349 34.2683C16.2982 34.2683 16.0241 34.5425 16.0241 34.8796C16.0241 35.2168 16.2982 35.4905 16.6349 35.4905C16.9717 35.4905 17.2458 35.2168 17.2458 34.8796C17.2458 34.5425 16.9721 34.2683 16.6349 34.2683Z" fill="#331B3B"/>
<path d="M19.032 4.90247H14.2379C14.0204 4.90247 13.844 4.72602 13.844 4.50861C13.844 4.2912 14.0204 4.11475 14.2379 4.11475H19.032C19.2498 4.11475 19.4258 4.2912 19.4258 4.50861C19.4258 4.72602 19.2498 4.90247 19.032 4.90247Z" fill="#331B3B"/>
</g>
<defs>
<filter id="filter0_d_42_107" x="-2" y="0" width="40" height="40" filterUnits="userSpaceOnUse" color-interpolation-filters="sRGB">
<feFlood flood-opacity="0" result="BackgroundImageFix"/>
<feColorMatrix in="SourceAlpha" type="matrix" values="0 0 0 0 0 0 0 0 0 0 0 0 0 0 0 0 0 0 127 0" result="hardAlpha"/>
<feMorphology radius="2" operator="dilate" in="SourceAlpha" result="effect1_dropShadow_42_107"/>
<feOffset/>
<feComposite in2="hardAlpha" operator="out"/>
<feColorMatrix type="matrix" values="0 0 0 0 1 0 0 0 0 1 0 0 0 0 1 0 0 0 0.01 0"/>
<feBlend mode="normal" in2="BackgroundImageFix" result="effect1_dropShadow_42_107"/>
<feBlend mode="normal" in="SourceGraphic" in2="effect1_dropShadow_42_107" result="shape"/>
</filter>
</defs>
</svg>
