<svg width="446" height="631" viewBox="0 0 446 631" fill="none" xmlns="http://www.w3.org/2000/svg">
<g filter="url(#filter0_d_42_47)">
<path d="M308.211 16.8331C166.068 -45.1094 61.1877 87.5687 26.0158 162.651C-84.1089 470.486 197.024 658.601 332.254 626.438C519.03 582.014 432.313 454.114 365.607 395.717C315.154 332.523 330.031 181.682 343.776 114.16C364.152 70.3625 328.222 31.6931 308.211 16.8331Z" fill="#05C19C"/>
<path d="M308.211 16.8331C166.068 -45.1094 61.1877 87.5687 26.0158 162.651C-84.1089 470.486 197.024 658.601 332.254 626.438C519.03 582.014 432.313 454.114 365.607 395.717C315.154 332.523 330.031 181.682 343.776 114.16C364.152 70.3625 328.222 31.6931 308.211 16.8331Z" stroke="#05C19C"/>
</g>
<defs>
<filter id="filter0_d_42_47" x="0.5" y="0.330078" width="445" height="630.17" filterUnits="userSpaceOnUse" color-interpolation-filters="sRGB">
<feFlood flood-opacity="0" result="BackgroundImageFix"/>
<feColorMatrix in="SourceAlpha" type="matrix" values="0 0 0 0 0 0 0 0 0 0 0 0 0 0 0 0 0 0 127 0" result="hardAlpha"/>
<feOffset/>
<feComposite in2="hardAlpha" operator="out"/>
<feColorMatrix type="matrix" values="0 0 0 0 1 0 0 0 0 1 0 0 0 0 1 0 0 0 0.01 0"/>
<feBlend mode="normal" in2="BackgroundImageFix" result="effect1_dropShadow_42_47"/>
<feBlend mode="normal" in="SourceGraphic" in2="effect1_dropShadow_42_47" result="shape"/>
</filter>
</defs>
</svg>
