<svg width="34" height="34" viewBox="0 0 34 34" fill="none" xmlns="http://www.w3.org/2000/svg">
<g filter="url(#filter0_d_42_84)">
<path d="M16.9999 31.7698C8.85585 31.7698 2.2301 25.144 2.2301 16.9999C2.2301 8.85584 8.85585 2.23009 16.9999 2.23009C25.144 2.23009 31.7698 8.85584 31.7698 16.9999C31.7698 25.144 25.144 31.7698 16.9999 31.7698ZM17.3282 22.3033C19.4544 22.3374 21.5156 22.7004 23.3894 23.3529C23.8564 21.5339 24.1292 19.4908 24.1545 17.3282H17.3282V22.3033ZM17.3282 22.9597V31.0969C19.8486 30.8714 22.0322 28.0635 23.2158 23.9871C21.4007 23.3497 19.3976 22.9939 17.3282 22.9597ZM16.6717 22.9597C14.602 22.9939 12.5992 23.3497 10.7838 23.9874C11.9674 28.0635 14.151 30.8714 16.6717 31.0969V22.9597ZM16.6717 22.3033V17.3282H9.84543C9.87071 19.4908 10.1435 21.5339 10.6105 23.3529C12.4843 22.7004 14.5455 22.3374 16.6717 22.3033ZM9.189 17.3282H2.89475C2.96892 20.5506 4.12622 23.5088 6.01873 25.852C7.17078 24.9218 8.51976 24.1544 10.0046 23.5748C9.5054 21.6859 9.21525 19.5679 9.189 17.3282ZM9.189 16.6717C9.21493 14.4319 9.5054 12.314 10.0046 10.4247C8.52009 9.84509 7.17078 9.07772 6.01906 8.14755C4.12622 10.491 2.96892 13.4493 2.89475 16.6717H9.189ZM9.84543 16.6717H16.6717V11.6969C14.5455 11.6628 12.4843 11.2994 10.6105 10.6469C10.1435 12.4659 9.87071 14.5091 9.84543 16.6717ZM16.6717 11.0405V2.90294C14.151 3.12843 11.9674 5.93634 10.7838 10.0128C12.5992 10.6502 14.6023 11.006 16.6717 11.0405ZM17.3282 11.0405C19.3976 11.0063 21.4007 10.6505 23.2158 10.0131C22.0322 5.93634 19.8489 3.12843 17.3282 2.90294V11.0405ZM17.3282 11.6969V16.6717H24.1545C24.1292 14.5091 23.8564 12.4659 23.3894 10.6469C21.5156 11.2994 19.4544 11.6628 17.3282 11.6969ZM24.8106 16.6717H31.1051C31.031 13.4493 29.8737 10.491 27.9808 8.14755C26.8288 9.07772 25.4798 9.84542 23.9949 10.4247C24.4942 12.3143 24.7846 14.4319 24.8106 16.6717ZM24.8106 17.3282C24.7846 19.5679 24.4942 21.6856 23.9949 23.5748C25.4798 24.1544 26.8288 24.9218 27.9808 25.852C29.8737 23.5085 31.0306 20.5503 31.1048 17.3282H24.8106ZM27.5564 26.3529C26.4746 25.4814 25.209 24.7603 23.8167 24.2102C22.9144 27.2456 21.4621 29.6213 19.716 30.8485C22.8088 30.2429 25.5418 28.6241 27.5564 26.3529ZM14.2839 30.8485C12.5378 29.6213 11.0854 27.2456 10.1832 24.2106C8.79087 24.7607 7.52526 25.4818 6.44345 26.3532C8.45772 28.6241 11.1908 30.2429 14.2839 30.8485ZM6.44312 7.64701C7.52493 8.51843 8.79021 9.23953 10.1828 9.78962C11.0851 6.75458 12.5375 4.37894 14.2836 3.15173C11.1908 3.75696 8.45772 5.37574 6.44312 7.64701ZM19.716 3.1514C21.4621 4.37861 22.9144 6.75426 23.8167 9.78962C25.2094 9.23953 26.4746 8.51843 27.5564 7.64701C25.5418 5.37574 22.8091 3.75696 19.716 3.1514Z" fill="black"/>
</g>
<defs>
<filter id="filter0_d_42_84" x="0" y="0" width="34" height="34" filterUnits="userSpaceOnUse" color-interpolation-filters="sRGB">
<feFlood flood-opacity="0" result="BackgroundImageFix"/>
<feColorMatrix in="SourceAlpha" type="matrix" values="0 0 0 0 0 0 0 0 0 0 0 0 0 0 0 0 0 0 127 0" result="hardAlpha"/>
<feMorphology radius="2" operator="dilate" in="SourceAlpha" result="effect1_dropShadow_42_84"/>
<feOffset/>
<feComposite in2="hardAlpha" operator="out"/>
<feColorMatrix type="matrix" values="0 0 0 0 1 0 0 0 0 1 0 0 0 0 1 0 0 0 0.01 0"/>
<feBlend mode="normal" in2="BackgroundImageFix" result="effect1_dropShadow_42_84"/>
<feBlend mode="normal" in="SourceGraphic" in2="effect1_dropShadow_42_84" result="shape"/>
</filter>
</defs>
</svg>
